<?xml version="1.0" standalone="no"?>
<!DOCTYPE svg PUBLIC "-//W3C//DTD SVG 20010904//EN"
 "http://www.w3.org/TR/2001/REC-SVG-20010904/DTD/svg10.dtd">
<svg version="1.0" xmlns="http://www.w3.org/2000/svg"
 width="1920.000000pt" height="1080.000000pt" viewBox="0 0 1920.000000 1080.000000"
 preserveAspectRatio="xMidYMid meet">

<g transform="translate(0.000000,1080.000000) scale(0.100000,-0.100000)"
fill="#000000" stroke="none">
<path d="M18259 10653 c-13 -17 -13 -17 6 -3 11 8 22 16 24 17 2 2 0 3 -6 3
-6 0 -17 -8 -24 -17z"/>
<path d="M17448 10545 c20 -46 41 -86 45 -87 4 -2 25 36 46 85 22 48 37 87 35
87 -3 0 -22 -37 -42 -82 l-38 -81 -36 81 c-21 45 -39 82 -42 82 -2 0 12 -38
32 -85z"/>
<path d="M17610 10540 l0 -90 58 2 57 2 -52 3 c-53 4 -53 4 -53 38 0 33 1 34
48 38 l47 3 -47 2 -48 2 0 39 0 40 53 4 52 3 -57 2 -58 2 0 -90z"/>
<path d="M17772 10538 c0 -51 3 -78 5 -60 4 30 7 32 41 32 31 0 41 -5 56 -31
10 -17 20 -28 24 -25 3 3 -2 14 -11 24 -21 23 -21 36 -2 52 28 23 13 91 -19
90 -6 0 -3 -5 7 -11 20 -12 23 -59 5 -77 -7 -7 -31 -12 -55 -12 l-43 0 0 49 0
50 38 4 37 4 -42 1 -43 2 2 -92z"/>
<path d="M18000 10620 c34 -11 60 -11 35 0 -11 5 -29 8 -40 8 -16 0 -15 -2 5
-8z"/>
<path d="M18114 10540 c0 -52 1 -74 3 -47 2 26 2 68 0 95 -2 26 -3 4 -3 -48z"/>
<path d="M18264 10620 c46 -14 66 -39 66 -81 0 -42 -35 -79 -75 -79 -12 0 -34
9 -49 21 -20 16 -26 29 -26 59 0 30 6 43 26 59 15 12 22 21 17 21 -22 0 -53
-47 -53 -82 0 -28 7 -42 31 -62 17 -14 41 -26 54 -26 13 0 37 12 54 26 25 20
31 34 31 64 0 30 -6 44 -31 64 -17 14 -40 26 -52 25 -18 -1 -17 -2 7 -9z"/>
<path d="M18392 10540 l2 -95 5 78 6 79 54 -72 c30 -39 58 -73 63 -76 4 -3 7
37 6 88 l-2 93 -5 -80 -6 -79 -54 69 c-30 39 -58 74 -63 80 -4 5 -7 -34 -6
-85z"/>
<path d="M18654 10614 c-18 -15 -18 -15 3 -5 30 15 49 14 67 -5 25 -25 19 -42
-35 -100 l-52 -54 64 2 64 2 -53 3 -54 4 46 49 c51 55 55 71 26 100 -24 24
-49 25 -76 4z"/>
<path d="M18860 10610 c-24 -24 -34 -62 -26 -95 8 -32 41 -65 64 -64 11 0 8 4
-9 10 -27 10 -49 46 -49 79 0 33 22 69 49 79 17 6 20 10 9 10 -10 1 -27 -8
-38 -19z"/>
<path d="M17947 10613 c-22 -21 2 -74 33 -72 10 0 7 4 -7 11 -25 12 -30 37
-11 56 7 7 8 12 2 12 -6 0 -14 -3 -17 -7z"/>
<path d="M18934 10600 c9 -13 16 -40 16 -60 0 -20 -7 -47 -16 -60 l-16 -25 21
24 c13 15 21 37 21 61 0 24 -8 46 -21 61 l-21 24 16 -25z"/>
<path d="M18020 10527 c59 -30 12 -83 -53 -59 -29 10 -30 10 -13 -3 11 -8 29
-15 41 -15 26 0 65 27 65 45 0 19 -28 45 -48 45 -12 0 -9 -4 8 -13z"/>
<path d="M18785 10460 c3 -5 8 -10 11 -10 2 0 4 5 4 10 0 6 -5 10 -11 10 -5 0
-7 -4 -4 -10z"/>
<path d="M6145 10110 c-11 -5 -47 -9 -80 -9 -66 -1 -99 -13 -69 -25 23 -9 153
4 160 15 3 5 39 9 80 9 43 0 74 4 74 10 0 12 -137 12 -165 0z"/>
<path d="M6351 10086 c-8 -10 -27 -15 -52 -14 -21 1 -44 -3 -51 -9 -7 -6 -37
-13 -66 -16 -47 -5 -82 -14 -142 -35 -8 -3 -17 -6 -20 -7 -6 -2 -55 -21 -85
-34 -11 -4 -63 -29 -115 -54 -52 -26 -99 -47 -104 -47 -10 0 30 39 66 64 12 9
19 18 15 22 -8 8 -67 -15 -67 -26 0 -4 -26 -27 -57 -51 -112 -88 -182 -169
-144 -169 3 0 38 23 76 50 38 28 75 50 83 50 7 0 30 11 50 25 20 14 42 25 49
25 20 0 15 -24 -8 -40 -27 -19 -38 -30 -69 -70 -14 -18 -40 -50 -57 -70 -39
-44 -40 -50 -10 -50 13 0 27 -4 33 -9 5 -5 18 -11 29 -13 16 -3 13 -7 -18 -22
-50 -25 -56 -37 -15 -34 27 3 32 0 30 -15 -3 -16 2 -15 35 7 35 24 63 33 63
21 0 -31 -109 -141 -211 -213 -43 -30 -56 -61 -16 -41 12 7 41 26 64 43 23 17
61 45 83 61 23 17 50 45 59 63 15 30 120 126 129 118 8 -9 -49 -84 -97 -127
-28 -26 -51 -54 -51 -63 0 -9 -4 -16 -8 -16 -8 0 -27 -13 -82 -57 -15 -13 -35
-23 -44 -23 -9 0 -16 -6 -16 -14 0 -24 74 -31 106 -9 22 14 25 19 11 21 -9 2
-17 7 -17 11 0 16 13 19 31 8 15 -9 21 -8 31 5 16 20 36 24 66 14 14 -5 29 -3
38 5 8 6 18 9 22 5 8 -9 -26 -36 -45 -36 -7 0 -13 -5 -13 -11 0 -8 -4 -8 -13
0 -11 8 -19 5 -37 -14 l-24 -25 22 -16 c29 -20 28 -27 -8 -41 -39 -15 -40 -43
-2 -43 29 0 82 -44 69 -57 -4 -3 0 -15 9 -25 14 -14 14 -20 4 -33 -13 -16 -6
-65 9 -65 5 0 31 -18 57 -41 27 -22 61 -47 77 -55 30 -16 36 -34 10 -34 -14 0
-14 -2 2 -20 10 -11 24 -20 32 -20 7 0 13 -3 13 -7 0 -13 60 -43 85 -43 26 0
55 -24 55 -45 0 -8 -9 -21 -21 -29 -26 -18 -18 -33 28 -52 73 -31 201 11 266
86 36 43 69 101 61 109 -6 7 -74 -61 -74 -74 0 -13 -54 -55 -70 -55 -18 0 -11
13 30 47 22 19 56 63 75 98 44 77 60 93 73 69 8 -14 17 -8 65 39 39 39 66 58
92 63 48 9 103 -1 127 -23 22 -20 79 -105 111 -166 12 -24 23 -34 27 -27 10
16 40 -62 34 -88 -3 -11 0 -31 8 -43 12 -23 15 -73 21 -344 1 -49 0 -117 -1
-150 -3 -68 9 -155 22 -158 5 -1 18 15 28 35 22 42 48 42 48 -1 0 -36 35 -91
58 -91 24 0 89 -70 167 -179 33 -46 84 -116 112 -155 29 -39 53 -78 53 -86 0
-13 79 -70 96 -70 3 0 17 -11 32 -25 15 -14 31 -25 36 -25 7 0 115 -75 164
-114 133 -108 237 -189 255 -199 12 -6 24 -15 27 -18 13 -14 120 -89 128 -89
5 0 15 -6 21 -13 6 -8 28 -19 49 -26 21 -7 53 -26 72 -42 38 -33 50 -31 27 5
-30 46 -64 76 -86 76 -11 0 -21 4 -21 10 0 5 3 9 8 7 4 -1 8 2 10 6 4 11 -34
57 -47 57 -6 0 -11 6 -11 14 0 13 -53 79 -97 122 -13 12 -23 29 -23 38 0 9
-11 21 -25 26 -30 11 -32 26 -6 39 16 9 28 1 77 -47 48 -46 59 -53 62 -38 2
10 -1 22 -8 26 -21 13 -43 65 -41 98 1 17 -3 32 -9 32 -5 0 -10 9 -10 21 0 25
-55 137 -81 165 -10 11 -19 28 -19 37 0 9 -4 19 -10 22 -5 3 -10 15 -10 26 0
19 -39 145 -60 194 -13 31 -33 136 -32 170 1 44 -20 165 -30 171 -4 3 -8 20
-8 39 0 19 -5 37 -11 41 -9 5 -10 -8 -4 -47 4 -30 9 -81 10 -114 2 -33 6 -100
10 -150 4 -65 2 -106 -9 -145 -8 -31 -16 -48 -19 -40 -9 24 -25 474 -17 485
20 28 18 80 -10 255 -30 193 -45 225 -36 75 9 -146 9 -165 -5 -181 -11 -14
-14 -13 -21 1 -5 8 -7 24 -3 34 3 11 2 22 -3 25 -5 3 -12 -20 -15 -52 -3 -31
-11 -81 -17 -109 -5 -29 -15 -77 -21 -105 -5 -29 -16 -97 -24 -151 -7 -54 -16
-101 -19 -104 -13 -13 -11 127 4 327 6 80 8 156 4 170 -3 14 -5 60 -4 103 1
70 -1 80 -22 96 -17 15 -26 38 -36 102 -8 46 -15 98 -16 116 0 17 -3 30 -6 28
-3 -2 -10 8 -17 21 -11 24 -2 41 17 29 6 -4 10 5 10 19 0 14 -4 26 -8 26 -5 0
-18 19 -28 42 -10 24 -40 75 -66 115 -27 39 -48 74 -48 77 0 3 32 -19 72 -48
60 -45 74 -52 90 -43 19 12 25 57 8 57 -5 0 -10 -10 -10 -22 0 -19 -4 -17 -35
18 -19 21 -35 43 -35 47 0 4 -10 18 -23 30 -42 41 -53 63 -17 33 19 -16 42
-38 50 -50 8 -12 20 -27 27 -34 7 -7 13 -19 13 -25 0 -8 3 -8 11 0 10 10 -5
45 -36 79 -5 7 -21 26 -35 43 -14 17 -30 31 -37 31 -7 0 -13 3 -13 8 0 14
-119 63 -171 69 -29 3 -68 15 -87 26 -38 23 -43 21 -31 -11 7 -18 14 -22 29
-17 11 4 20 2 20 -4 0 -6 -7 -11 -15 -11 -20 0 -20 -44 0 -60 11 -9 14 -22 9
-47 -5 -25 -2 -39 11 -53 13 -15 15 -28 10 -62 -4 -24 -11 -50 -15 -59 -14
-26 0 -98 21 -104 14 -5 16 -11 10 -23 -5 -9 -17 -35 -27 -58 -17 -39 -64 -86
-64 -64 0 5 5 10 11 10 7 0 1 11 -13 25 -21 21 -29 23 -56 16 -29 -9 -30 -8
-28 17 2 15 12 30 25 35 34 16 27 45 -11 49 -38 4 -46 31 -10 36 26 4 28 15 6
36 -18 19 -26 20 -40 6 -7 -7 -19 -8 -37 -1 -44 17 -30 38 21 32 50 -7 -48 78
-134 116 -62 27 -79 48 -50 59 8 3 31 -2 51 -12 38 -18 55 -14 37 9 -17 21 -1
30 19 11 10 -9 23 -13 28 -9 16 9 13 35 -4 35 -9 0 -12 6 -9 15 4 10 0 15 -15
15 -12 0 -21 -4 -21 -10 0 -5 -7 -10 -15 -10 -8 0 -15 5 -15 10 0 6 -7 10 -15
10 -9 0 -12 6 -9 15 6 14 8 13 19 -1 8 -12 14 -14 19 -6 4 7 4 17 1 22 -7 12
12 40 26 40 4 0 17 -10 29 -22 11 -12 20 -19 20 -15 0 9 -21 47 -38 68 -11 15
-10 19 8 32 25 17 19 37 -10 37 -10 0 -27 11 -38 25 -11 14 -25 25 -31 25 -6
0 -8 6 -5 14 3 8 1 17 -4 20 -5 3 -7 16 -5 29 4 18 -5 31 -39 58 -24 19 -56
40 -73 48 -51 23 -60 29 -58 39 1 5 -25 12 -58 16 -76 7 -158 41 -141 58 8 8
17 7 34 -4 38 -24 69 -28 95 -11 19 13 31 14 59 5 18 -5 34 -9 34 -7 0 2 -19
15 -42 29 -31 18 -47 22 -64 16 -12 -5 -38 -7 -56 -4 -18 2 -51 5 -74 7 -22 2
-51 11 -64 20 -32 22 -68 24 -50 2 10 -12 8 -16 -13 -24 -31 -12 -93 -3 -108
15 -9 11 -8 14 4 14 11 0 14 5 10 16 -4 10 1 22 12 30 17 12 17 14 1 20 -9 3
-37 1 -61 -6 -26 -7 -65 -10 -93 -7 -40 6 -45 5 -30 -7 33 -25 -14 -37 -52
-14 -16 10 -22 10 -32 -5 -8 -10 -37 -20 -78 -26 -63 -9 -123 -35 -166 -73
-16 -14 -26 -16 -45 -9 -23 9 -22 10 21 31 46 22 59 30 120 68 19 12 49 22 65
22 17 1 41 7 55 15 14 8 40 14 58 15 17 0 32 4 32 8 0 9 120 38 135 33 24 -8
40 -5 38 7 -4 18 82 16 112 -4 13 -8 29 -14 37 -13 26 4 119 -29 200 -72 10
-5 28 -9 40 -9 21 0 21 1 -6 15 -15 8 -34 15 -41 15 -7 0 -18 7 -25 15 -7 8
-19 15 -27 15 -8 0 -21 7 -29 15 -9 8 -26 15 -39 15 -13 0 -27 5 -30 10 -3 6
-19 10 -34 10 -15 0 -31 4 -36 9 -6 6 -33 13 -60 16 -40 6 -54 4 -64 -9z m-31
-139 c0 -8 -9 -22 -20 -32 -11 -10 -20 -29 -20 -42 0 -14 -6 -23 -15 -23 -8 0
-15 -4 -15 -10 0 -13 -30 -13 -50 0 -13 8 -12 14 5 45 26 50 115 97 115 62z
m250 -61 c0 -17 -23 -27 -40 -16 -9 6 -8 10 6 19 26 14 34 14 34 -3z m-170
-16 c-20 -13 -33 -13 -25 0 3 6 14 10 23 10 15 0 15 -2 2 -10z m-380 -15 c0
-8 -7 -15 -15 -15 -16 0 -20 12 -8 23 11 12 23 8 23 -8z m-210 -55 c0 -5 -7
-10 -16 -10 -8 0 -12 5 -9 10 3 6 10 10 16 10 5 0 9 -4 9 -10z m117 -6 c-3 -3
-12 -4 -19 -1 -8 3 -5 6 6 6 11 1 17 -2 13 -5z m-82 -24 c3 -5 -3 -15 -15 -22
-11 -7 -20 -18 -20 -25 0 -7 -21 -24 -47 -39 -27 -15 -56 -34 -66 -42 -9 -8
-20 -13 -23 -9 -3 3 12 22 35 42 22 20 43 45 46 56 4 10 15 19 25 19 11 0 25
7 32 15 15 17 25 19 33 5z m795 1 c0 -5 -7 -12 -16 -15 -12 -5 -14 -14 -9 -37
l7 -32 -25 19 c-31 24 -33 61 -3 67 38 8 46 7 46 -2z m-540 -10 c0 -5 -11 -16
-24 -24 -23 -16 -23 -15 -12 8 10 24 36 35 36 16z m643 -6 c20 -8 39 -20 43
-27 5 -8 2 -9 -12 -4 -10 5 -36 10 -56 13 -46 7 -74 33 -35 33 13 0 41 -7 60
-15z m-864 -38 c8 -10 4 -19 -19 -35 -16 -12 -32 -22 -36 -22 -3 0 -20 -11
-36 -25 -32 -27 -49 -26 -42 3 5 15 33 38 86 67 10 5 18 13 18 17 0 12 17 9
29 -5z m121 -37 c-13 -11 -25 -18 -28 -15 -8 8 19 35 36 35 11 0 9 -5 -8 -20z
m936 -50 c13 0 24 -4 24 -10 0 -5 -15 -9 -32 -9 -18 1 -48 -2 -66 -6 -29 -7
-32 -6 -25 11 10 27 23 33 50 23 14 -5 35 -9 49 -9z m52 -159 c3 -8 -1 -12 -9
-9 -7 2 -15 10 -17 17 -3 8 1 12 9 9 7 -2 15 -10 17 -17z m-108 -41 c12 -8 9
-10 -12 -10 -16 0 -28 5 -28 10 0 13 20 13 40 0z m516 -45 c-19 -14 -36 -12
-36 6 0 5 12 9 28 9 26 -1 26 -1 8 -15z m14 -61 c0 -8 -4 -12 -10 -9 -5 3 -10
13 -10 21 0 8 5 12 10 9 6 -3 10 -13 10 -21z m-490 -164 c0 -5 -9 -10 -21 -10
-11 0 -17 5 -14 10 3 6 13 10 21 10 8 0 14 -4 14 -10z m13 -76 c17 -9 43 -29
57 -43 15 -14 43 -37 63 -51 20 -14 37 -29 37 -33 0 -4 21 -30 47 -58 26 -28
48 -57 49 -66 2 -9 7 -19 11 -22 7 -5 38 -103 47 -148 0 -4 -7 -9 -16 -11 -20
-4 -33 19 -53 94 -8 32 -26 70 -40 84 -14 14 -25 34 -25 43 0 17 -10 29 -71
82 -79 69 -128 105 -143 105 -9 0 -16 8 -16 20 0 24 11 25 53 4z m41 -160 c4
-10 1 -14 -6 -12 -15 5 -23 28 -10 28 5 0 13 -7 16 -16z m16 -39 c0 -8 -4 -15
-10 -15 -5 0 -10 7 -10 15 0 8 5 15 10 15 6 0 10 -7 10 -15z m735 -287 c-4
-18 -13 -39 -21 -47 -21 -22 -31 15 -10 38 9 10 16 23 16 29 0 7 5 12 11 12 7
0 8 -12 4 -32z m-78 -170 c-3 -7 -5 -2 -5 12 0 14 2 19 5 13 2 -7 2 -19 0 -25z
m-83 -728 c19 -12 37 -27 40 -35 3 -8 11 -15 18 -15 7 0 29 -25 48 -55 19 -30
38 -54 43 -55 9 0 10 -30 0 -30 -3 0 -40 35 -82 79 -42 43 -88 86 -103 96 -56
35 -23 49 36 15z m284 -187 c66 -76 157 -176 201 -222 44 -46 78 -87 75 -92
-3 -5 -1 -9 4 -9 5 0 12 -8 16 -17 3 -10 10 -28 16 -41 9 -20 8 -22 -11 -12
-37 20 -161 144 -200 200 -58 83 -120 160 -165 205 -33 34 -84 106 -84 121 0
2 6 4 13 4 8 0 68 -62 135 -137z m192 -29 c0 -8 -4 -12 -10 -9 -5 3 -10 13
-10 21 0 8 5 12 10 9 6 -3 10 -13 10 -21z m127 -16 c-3 -8 -6 -5 -6 6 -1 11 2
17 5 13 3 -3 4 -12 1 -19z m-87 -70 c0 -7 -9 -2 -20 12 -26 33 -26 46 0 20 11
-11 20 -26 20 -32z m120 11 c0 -10 4 -19 9 -19 14 0 23 -32 12 -43 -7 -7 -12
-4 -16 9 -4 10 -11 27 -16 36 -12 23 -12 51 1 43 6 -3 10 -15 10 -26z m60
-299 c0 -18 -19 -11 -30 11 -11 19 -10 20 9 9 12 -6 21 -15 21 -20z"/>
<path d="M5880 10060 c0 -5 -11 -10 -25 -10 -14 0 -28 -7 -31 -15 -4 -9 -19
-15 -35 -15 -16 0 -29 -5 -29 -11 0 -7 9 -9 23 -6 82 20 102 27 105 36 2 6 24
11 48 11 24 0 44 5 44 10 0 6 -22 10 -50 10 -27 0 -50 -4 -50 -10z"/>
<path d="M5845 9985 c-16 -13 -25 -24 -19 -25 18 0 74 31 74 41 0 16 -24 9
-55 -16z"/>
<path d="M5680 9974 c-25 -15 -52 -32 -61 -40 -8 -8 -21 -14 -27 -14 -7 0 -12
-4 -12 -8 0 -5 -10 -14 -22 -20 l-23 -11 23 0 c12 -1 22 4 22 9 0 6 7 10 16
10 9 0 43 18 76 40 33 22 64 40 69 40 5 0 9 5 9 10 0 16 -22 11 -70 -16z"/>
<path d="M6775 9940 c3 -5 13 -10 21 -10 8 0 12 5 9 10 -3 6 -13 10 -21 10 -8
0 -12 -4 -9 -10z"/>
<path d="M6837 9894 c-8 -9 32 -44 50 -44 7 0 13 -4 13 -10 0 -5 8 -10 17 -10
14 0 14 3 -5 20 -12 11 -24 20 -28 20 -4 0 -15 7 -24 15 -9 8 -20 12 -23 9z"/>
<path d="M6960 9790 c0 -5 5 -10 11 -10 5 0 7 5 4 10 -3 6 -8 10 -11 10 -2 0
-4 -4 -4 -10z"/>
<path d="M5485 9710 c3 -5 11 -10 16 -10 6 0 7 5 4 10 -3 6 -11 10 -16 10 -6
0 -7 -4 -4 -10z"/>
<path d="M7060 9670 c0 -5 5 -10 11 -10 5 0 7 5 4 10 -3 6 -8 10 -11 10 -2 0
-4 -4 -4 -10z"/>
<path d="M7230 9490 c0 -5 5 -10 10 -10 6 0 10 5 10 10 0 6 -4 10 -10 10 -5 0
-10 -4 -10 -10z"/>
<path d="M7260 9126 c0 -9 5 -16 10 -16 6 0 10 4 10 9 0 6 -4 13 -10 16 -5 3
-10 -1 -10 -9z"/>
<path d="M7732 9120 c0 -14 2 -19 5 -12 2 6 2 18 0 25 -3 6 -5 1 -5 -13z"/>
<path d="M7753 9054 c-6 -13 -7 -24 -3 -24 9 0 25 39 18 45 -2 2 -8 -7 -15
-21z"/>
<path d="M7804 8956 c-3 -8 -1 -23 5 -33 9 -15 10 -13 11 15 0 34 -7 42 -16
18z"/>
<path d="M7862 8745 c0 -16 2 -22 5 -12 2 9 2 23 0 30 -3 6 -5 -1 -5 -18z"/>
<path d="M6670 8735 c0 -8 7 -15 16 -15 14 0 14 3 4 15 -7 8 -14 15 -16 15 -2
0 -4 -7 -4 -15z"/>
<path d="M5428 8382 c-10 -2 -18 -8 -18 -13 0 -11 11 -11 30 1 18 11 11 18
-12 12z"/>
<path d="M7178 7915 c-11 -48 -21 -155 -14 -155 3 0 14 21 26 46 21 49 26 94
11 94 -5 0 -11 10 -13 23 -3 19 -5 18 -10 -8z"/>
<path d="M1810 7883 c0 -4 5 -15 10 -23 8 -13 10 -13 10 2 0 9 -4 20 -10 23
-5 3 -10 3 -10 -2z"/>
<path d="M1123 7853 c26 -2 68 -2 95 0 26 2 4 3 -48 3 -52 0 -74 -1 -47 -3z"/>
<path d="M5337 7839 c-9 -6 -17 -14 -17 -19 0 -17 27 -11 34 6 8 22 5 25 -17
13z"/>
<path d="M708 7823 c23 -2 59 -2 80 0 20 2 1 4 -43 4 -44 0 -61 -2 -37 -4z"/>
<path d="M277 7803 c24 -2 62 -2 86 0 23 2 4 4 -43 4 -47 0 -66 -2 -43 -4z"/>
<path d="M5760 7786 c0 -9 7 -16 16 -16 9 0 14 5 12 12 -6 18 -28 21 -28 4z"/>
<path d="M8111 7784 c0 -11 3 -14 6 -6 3 7 2 16 -1 19 -3 4 -6 -2 -5 -13z"/>
<path d="M1844 7779 c-3 -6 -1 -16 5 -22 8 -8 11 -5 11 11 0 24 -5 28 -16 11z"/>
<path d="M1540 7740 c-36 -6 -26 -7 45 -7 60 -1 80 2 60 7 -36 9 -46 9 -105 0z"/>
<path d="M1770 7741 c0 -6 4 -12 9 -15 5 -3 17 -41 26 -83 9 -43 32 -143 51
-223 19 -80 46 -194 60 -255 15 -60 37 -155 50 -210 14 -55 36 -152 50 -215
13 -63 31 -137 38 -165 14 -51 28 -108 72 -290 53 -223 105 -448 106 -465 1
-8 -1 -24 -5 -35 -8 -24 25 -71 42 -61 13 8 5 104 -10 120 -5 6 -9 24 -9 42 0
17 -7 48 -15 67 -8 20 -15 50 -15 66 0 16 -4 33 -10 36 -5 3 -10 22 -10 42 0
19 -6 49 -14 66 -8 18 -17 46 -19 62 -6 35 -30 132 -72 295 -10 36 -21 83 -25
105 -5 22 -16 69 -25 105 -9 36 -20 83 -25 105 -5 22 -16 69 -25 105 -23 93
-33 138 -44 197 -5 28 -14 61 -20 72 -6 11 -11 34 -11 50 0 17 -4 39 -10 49
-5 9 -14 40 -20 67 -25 111 -31 142 -39 191 -5 28 -14 61 -20 72 -6 11 -11 34
-11 50 0 16 -8 36 -18 45 -21 19 -32 22 -32 8z"/>
<path d="M8128 7712 c-3 -9 -1 -26 3 -37 6 -15 8 -11 8 18 1 40 -4 48 -11 19z"/>
<path d="M1150 7710 c-19 -12 117 -13 175 -1 32 7 20 9 -60 10 -55 0 -107 -4
-115 -9z"/>
<path d="M820 7690 c-14 -4 -65 -9 -115 -9 -49 -1 -121 -6 -160 -12 -62 -9
-169 -17 -457 -35 -66 -5 -88 -9 -88 -20 0 -17 34 -18 145 -4 86 10 276 26
470 40 479 34 584 47 375 48 -80 0 -156 -4 -170 -8z"/>
<path d="M1872 7665 c0 -16 2 -22 5 -12 2 9 2 23 0 30 -3 6 -5 -1 -5 -18z"/>
<path d="M1901 7544 c0 -11 3 -14 6 -6 3 7 2 16 -1 19 -3 4 -6 -2 -5 -13z"/>
<path d="M1922 7445 c0 -16 2 -22 5 -12 2 9 2 23 0 30 -3 6 -5 -1 -5 -18z"/>
<path d="M1940 7351 c0 -11 5 -23 10 -26 6 -4 10 5 10 19 0 14 -4 26 -10 26
-5 0 -10 -9 -10 -19z"/>
<path d="M1972 7235 c0 -16 2 -22 5 -12 2 9 2 23 0 30 -3 6 -5 -1 -5 -18z"/>
<path d="M1990 7136 c0 -14 5 -28 10 -31 6 -3 10 5 10 19 0 14 -4 28 -10 31
-6 3 -10 -5 -10 -19z"/>
<path d="M2022 7030 c0 -19 2 -27 5 -17 2 9 2 25 0 35 -3 9 -5 1 -5 -18z"/>
<path d="M6284 6985 c-8 -53 1 -70 16 -31 13 34 13 63 1 71 -6 3 -13 -15 -17
-40z"/>
<path d="M2040 6915 c0 -14 5 -25 10 -25 6 0 10 11 10 25 0 14 -4 25 -10 25
-5 0 -10 -11 -10 -25z"/>
<path d="M6261 6838 c-7 -29 -11 -71 -9 -93 3 -39 4 -38 17 25 22 110 24 120
14 120 -6 0 -15 -24 -22 -52z"/>
<path d="M2073 6815 c0 -22 2 -30 4 -17 2 12 2 30 0 40 -3 9 -5 -1 -4 -23z"/>
<path d="M2091 6718 c-1 -15 4 -30 9 -33 12 -7 12 12 0 40 -8 18 -9 17 -9 -7z"/>
<path d="M6231 6648 c-11 -31 -27 -125 -47 -283 -19 -149 -61 -290 -129 -427
-61 -122 -122 -226 -157 -266 -28 -33 -35 -52 -19 -52 19 0 258 248 270 281 7
19 18 44 23 55 6 12 7 30 4 40 -3 11 3 55 14 99 11 44 29 170 40 280 11 110
22 219 25 242 5 47 -10 67 -24 31z"/>
<path d="M2122 6600 c0 -19 2 -27 5 -17 2 9 2 25 0 35 -3 9 -5 1 -5 -18z"/>
<path d="M2140 6503 c0 -18 2 -33 4 -33 9 0 13 39 5 51 -6 10 -9 4 -9 -18z"/>
<path d="M2780 6352 c0 -12 19 -26 26 -19 2 2 -2 10 -11 17 -9 8 -15 8 -15 2z"/>
<path d="M2999 6304 c-9 -11 -10 -20 -2 -32 24 -39 82 -15 68 28 -8 24 -47 27
-66 4z"/>
<path d="M2240 6252 c0 -11 11 -70 25 -132 18 -83 22 -116 14 -126 -11 -13 -9
-26 20 -190 8 -41 7 -121 -2 -169 -2 -12 -75 -84 -85 -84 -3 0 -8 -4 -10 -10
-2 -6 5 -11 15 -12 10 0 13 -3 6 -6 -7 -2 -13 -13 -13 -24 0 -14 6 -19 23 -18
12 1 35 1 52 1 57 -3 18 -21 -263 -117 -152 -53 -188 -62 -214 -55 -22 7 -36
5 -52 -5 -11 -8 -33 -15 -48 -15 -16 0 -28 -4 -28 -10 0 -5 -13 -10 -29 -10
-17 0 -32 -4 -35 -9 -3 -5 -26 -12 -51 -15 -25 -4 -45 -11 -45 -17 0 -5 -13
-9 -29 -9 -17 0 -33 -4 -36 -10 -3 -5 -20 -10 -36 -10 -17 0 -32 -6 -35 -15
-4 -9 -19 -15 -39 -15 -19 0 -37 -4 -40 -10 -3 -5 -16 -10 -29 -10 -12 0 -31
-7 -42 -15 -10 -8 -28 -15 -39 -15 -11 0 -28 -7 -39 -15 -14 -10 -24 -11 -38
-4 -10 6 -26 9 -36 8 -39 -4 -52 2 -67 31 -35 67 -9 130 53 130 24 0 34 -6 46
-32 18 -36 21 -81 6 -109 -10 -17 -9 -18 16 -7 25 11 26 15 19 62 -5 39 -14
57 -41 83 -20 18 -45 33 -56 33 -32 0 -92 -69 -92 -106 0 -36 44 -100 78 -114
20 -8 19 -9 -6 -9 -15 -1 -30 -5 -33 -11 -3 -5 -20 -10 -36 -10 -16 0 -32 -6
-35 -13 -6 -17 -74 -50 -154 -74 -200 -62 -309 -97 -338 -109 -18 -8 -39 -14
-47 -14 -9 0 -23 -4 -33 -9 -9 -5 -82 -30 -162 -56 -205 -67 -197 -62 -198
-106 -1 -29 2 -36 15 -35 14 1 20 -13 28 -70 11 -67 15 -76 83 -158 154 -187
162 -195 216 -210 115 -34 253 -66 280 -66 16 0 38 -7 47 -16 17 -15 24 -13
104 35 47 28 89 51 94 51 5 0 14 7 21 15 17 20 15 20 -86 -14 -48 -16 -94 -27
-102 -23 -12 4 -10 8 10 14 28 10 78 77 78 104 0 9 11 48 25 86 16 44 23 79
19 95 -8 31 15 133 31 133 6 0 51 -20 99 -45 49 -25 96 -44 105 -43 9 2 -14
19 -52 38 -38 19 -86 51 -108 71 l-39 36 35 37 c37 40 42 61 21 89 -8 11 -14
48 -15 102 -1 82 0 84 28 104 16 12 34 21 41 21 6 0 118 36 248 81 130 44 266
90 302 101 36 12 111 36 167 55 151 49 177 42 108 -30 -19 -20 -35 -45 -35
-57 0 -13 -9 -24 -25 -30 -31 -12 -24 -37 13 -47 14 -3 77 -2 141 2 64 4 126
7 139 7 13 0 22 6 22 15 0 11 -7 14 -24 9 -32 -8 -78 13 -74 33 2 9 13 21 26
27 12 6 30 18 40 27 30 27 46 20 22 -10 -27 -34 -12 -51 24 -27 32 20 43 12
48 -36 l3 -35 70 -5 c59 -4 78 -10 120 -40 71 -50 83 -70 43 -70 -28 0 -42
-10 -51 -32 -3 -10 -13 -18 -22 -18 -8 0 -38 -16 -66 -36 -38 -28 -47 -39 -37
-46 9 -7 8 -8 -5 -4 -28 9 -41 -4 -19 -20 11 -7 34 -12 52 -9 36 4 52 15 33
22 -7 3 -13 9 -13 13 0 5 13 1 30 -8 16 -9 30 -20 30 -24 0 -5 7 -8 15 -8 8 0
15 -4 15 -10 0 -5 15 -10 33 -10 18 0 38 -5 45 -12 18 -18 28 0 13 24 -16 26
-2 38 47 38 25 0 32 4 32 20 0 11 5 20 10 20 17 0 138 59 145 70 3 5 15 10 25
10 10 0 20 5 22 11 3 8 10 8 26 -2 18 -11 26 -11 42 -1 26 16 30 15 30 -3 0
-8 4 -15 9 -15 5 0 14 7 21 15 21 25 43 19 36 -10 -5 -21 -2 -27 21 -36 15 -5
36 -8 46 -5 11 3 27 0 37 -7 14 -8 22 -8 34 2 19 16 12 31 -15 31 -29 0 -23
22 16 53 l35 28 41 -21 c22 -12 43 -19 45 -17 6 6 -62 73 -80 80 -12 5 -12 12
-3 42 9 31 8 39 -10 63 -11 15 -33 29 -49 32 -24 4 -29 11 -31 38 -2 18 -16
60 -32 95 -16 34 -37 80 -46 102 -9 22 -19 34 -22 27 -3 -6 -9 -10 -13 -7 -5
3 -7 12 -3 20 7 21 -6 67 -17 60 -6 -3 -10 1 -10 10 0 9 -4 13 -10 10 -6 -4
-10 6 -10 24 0 16 -7 36 -15 45 -8 8 -15 20 -15 26 0 6 -11 23 -25 38 -14 15
-25 32 -25 38 0 7 -7 14 -15 18 -8 3 -15 11 -15 18 0 7 -11 22 -25 32 -14 10
-25 24 -25 31 0 7 -11 24 -24 38 -13 14 -30 35 -38 45 -25 35 -133 154 -191
210 -31 31 -69 75 -83 99 -26 45 -44 55 -44 25z m149 -252 c10 -5 60 -69 111
-142 51 -73 96 -135 100 -138 19 -13 154 -199 167 -229 19 -45 8 -84 -33 -116
-63 -49 -59 -65 75 -245 59 -79 88 -109 108 -110 7 0 28 16 48 35 36 37 55 38
55 4 0 -11 -10 -23 -23 -28 -13 -5 -35 -23 -50 -40 -29 -35 -54 -40 -64 -13
-4 9 -18 28 -32 42 -14 14 -43 47 -65 73 -21 26 -41 45 -45 42 -3 -3 0 -10 8
-14 7 -5 11 -19 9 -32 -4 -23 -5 -23 -13 -4 -5 11 -25 39 -46 61 -32 36 -49
59 -104 142 -5 8 -18 23 -27 33 -19 20 -68 113 -68 129 0 20 20 9 35 -20 9
-17 21 -28 26 -24 7 4 -3 21 -24 43 -19 20 -46 61 -61 91 -14 30 -48 91 -76
135 -28 44 -53 91 -56 105 -16 77 -38 156 -46 165 -36 40 37 85 91 55z m148
-112 c39 -42 153 -205 153 -219 0 -26 -31 6 -112 117 -48 65 -87 122 -88 127
0 15 17 6 47 -25z m-219 -345 c3 -22 -28 -40 -48 -28 -12 7 -13 38 -3 49 15
14 48 1 51 -21z m66 -125 c11 -15 12 -26 5 -40 -13 -25 -65 -24 -79 1 -13 25
-13 27 6 45 22 22 50 20 68 -6z m41 -66 c29 -20 76 -94 73 -114 -5 -37 -23
-30 -59 22 -19 27 -37 50 -41 50 -5 0 -8 11 -8 25 0 25 15 32 35 17z m-315
-112 c0 -5 -4 -10 -10 -10 -5 0 -10 5 -10 10 0 6 5 10 10 10 6 0 10 -4 10 -10z
m457 -78 c18 -26 43 -59 55 -75 28 -35 12 -58 -23 -33 -13 9 -34 16 -47 16
-26 0 -73 22 -90 43 -9 11 -5 23 19 55 17 23 36 42 42 42 7 0 27 -22 44 -48z
m-212 -52 c3 -5 1 -10 -4 -10 -6 0 -11 5 -11 10 0 6 2 10 4 10 3 0 8 -4 11
-10z m235 -85 c7 -8 19 -15 26 -15 8 0 14 -4 14 -10 0 -13 -25 -13 -48 -1 -9
5 -25 12 -35 15 -10 3 -15 10 -12 16 9 15 41 12 55 -5z m-80 -95 c0 -5 -7 -10
-15 -10 -8 0 -15 5 -15 10 0 6 7 10 15 10 8 0 15 -4 15 -10z m-70 -41 c0 -5
-7 -9 -15 -9 -15 0 -20 12 -9 23 8 8 24 -1 24 -14z m-65 -39 c3 -6 -6 -15 -20
-20 -35 -13 -35 -13 -35 10 0 15 7 20 24 20 14 0 28 -5 31 -10z m-1725 -689
c0 -11 -49 -21 -55 -11 -3 5 1 11 7 13 21 9 48 8 48 -2z"/>
<path d="M2470 5646 c0 -8 5 -18 10 -21 6 -3 10 1 10 9 0 8 -4 18 -10 21 -5 3
-10 -1 -10 -9z"/>
<path d="M2498 5615 c-8 -9 3 -45 13 -45 5 0 9 -5 9 -10 0 -14 28 -42 63 -65
33 -21 36 -7 5 22 -23 20 -62 67 -77 91 -4 7 -10 10 -13 7z"/>
<path d="M2890 6172 c0 -13 30 -52 41 -52 16 0 10 25 -11 43 -22 19 -30 21
-30 9z"/>
<path d="M9285 6122 c-27 -1 -57 -5 -65 -9 -8 -3 -44 -8 -80 -10 -36 -3 -72
-11 -81 -19 -8 -8 -28 -14 -42 -14 -15 0 -27 -3 -27 -6 0 -3 13 -24 29 -47 35
-52 84 -140 129 -232 19 -38 36 -72 38 -74 2 -2 12 3 21 11 23 19 54 32 71 29
7 -1 32 7 55 18 65 30 140 39 352 41 77 1 169 -1 205 -3 155 -12 215 -19 227
-29 7 -5 16 -7 22 -4 5 3 40 0 77 -8 38 -8 72 -12 77 -9 4 2 13 0 20 -5 11 -9
48 -17 117 -26 28 -4 54 -12 87 -29 13 -6 26 -7 30 -4 3 4 17 0 30 -8 13 -9
29 -15 36 -14 12 2 25 -2 75 -22 13 -5 33 -9 46 -9 13 0 26 -7 30 -15 3 -9 19
-15 41 -15 19 0 35 -4 35 -10 0 -5 9 -10 20 -10 20 0 27 -2 88 -33 19 -10 38
-14 44 -11 16 10 -33 44 -63 44 -15 0 -29 7 -33 15 -3 8 -17 15 -31 15 -14 0
-25 5 -25 10 0 6 -15 10 -34 10 -21 0 -36 6 -40 15 -3 9 -18 15 -36 15 -16 0
-30 5 -30 10 0 6 -11 10 -24 10 -29 0 -44 19 -25 31 25 15 1 21 -36 9 -20 -7
-39 -9 -43 -5 -4 4 -1 10 6 12 17 6 15 23 -3 23 -8 0 -20 -9 -27 -20 -15 -24
-28 -26 -28 -5 0 9 -10 15 -26 15 -24 0 -24 1 -10 22 29 41 14 104 -20 91 -8
-3 -17 2 -20 11 -7 18 -34 22 -34 5 0 -8 -4 -8 -15 1 -8 6 -19 9 -24 6 -5 -4
-19 3 -30 15 -15 17 -24 19 -34 11 -10 -8 -16 -6 -25 9 -7 10 -21 19 -32 19
-20 0 -21 3 -24 65 -1 15 -8 20 -26 19 -14 -1 -28 4 -32 10 -7 10 -42 -22 -51
-47 -2 -7 -8 -9 -12 -5 -4 4 -2 14 5 23 18 22 5 45 -27 45 -16 0 -42 2 -59 6
-26 5 -32 2 -42 -20 -6 -14 -16 -26 -22 -26 -13 0 -13 17 0 25 6 3 10 13 10
22 0 11 -8 14 -35 11 -21 -2 -36 1 -39 8 -3 8 -20 10 -50 7 -53 -6 -89 3 -66
17 26 16 4 20 -101 20 -57 0 -111 -1 -119 -1 -8 0 -62 2 -120 3 -58 2 -127 2
-155 0z m775 -96 c0 -3 -9 -21 -21 -40 -29 -49 -44 -46 -18 4 12 22 25 40 30
40 5 0 9 -2 9 -4z m391 -229 c-8 -8 -11 -7 -11 4 0 20 13 34 18 19 3 -7 -1
-17 -7 -23z m-26 -17 c3 -5 1 -10 -4 -10 -6 0 -11 5 -11 10 0 6 2 10 4 10 3 0
8 -4 11 -10z"/>
<path d="M9830 6110 c0 -5 24 -10 54 -10 30 0 58 5 61 10 4 6 -17 10 -54 10
-34 0 -61 -4 -61 -10z"/>
<path d="M2965 6090 c3 -5 10 -10 16 -10 5 0 9 5 9 10 0 6 -7 10 -16 10 -8 0
-12 -4 -9 -10z"/>
<path d="M10270 5974 c0 -8 5 -12 10 -9 6 3 10 10 10 16 0 5 -4 9 -10 9 -5 0
-10 -7 -10 -16z"/>
<path d="M10528 5843 c-10 -3 -18 -11 -18 -19 0 -19 36 -18 43 1 7 17 -1 23
-25 18z"/>
<path d="M2957 5803 c10 -18 21 -33 26 -33 14 0 7 17 -19 41 l-26 24 19 -32z"/>
<path d="M10590 5789 c0 -11 5 -17 10 -14 6 3 10 13 10 21 0 8 -4 14 -10 14
-5 0 -10 -9 -10 -21z"/>
<path d="M2890 5781 c0 -5 5 -13 10 -16 6 -3 10 -2 10 4 0 5 -4 13 -10 16 -5
3 -10 2 -10 -4z"/>
<path d="M10520 5780 c-12 -7 -12 -12 -3 -21 15 -15 26 -7 21 15 -2 11 -7 13
-18 6z"/>
<path d="M2920 5740 c0 -5 5 -10 10 -10 6 0 10 5 10 10 0 6 -4 10 -10 10 -5 0
-10 -4 -10 -10z"/>
<path d="M3010 5728 c0 -8 11 -25 25 -38 14 -13 25 -18 25 -12 0 6 -11 23 -25
38 -16 18 -25 22 -25 12z"/>
<path d="M10695 5721 c-3 -5 -1 -12 5 -16 5 -3 10 1 10 9 0 18 -6 21 -15 7z"/>
<path d="M2960 5678 c0 -17 37 -54 46 -46 3 3 -6 18 -20 33 -17 19 -26 23 -26
13z"/>
<path d="M3080 5634 c1 -15 28 -46 37 -43 4 2 -2 15 -14 28 -13 13 -23 20 -23
15z"/>
<path d="M3016 5588 c13 -23 37 -48 46 -48 5 0 -1 14 -14 30 -21 29 -46 43
-32 18z"/>
<path d="M11015 5550 c3 -5 8 -10 11 -10 2 0 4 5 4 10 0 6 -5 10 -11 10 -5 0
-7 -4 -4 -10z"/>
<path d="M3140 5541 c0 -4 11 -18 25 -31 26 -25 32 -21 15 9 -10 20 -40 36
-40 22z"/>
<path d="M11060 5531 c0 -6 5 -13 10 -16 6 -3 10 1 10 9 0 9 -4 16 -10 16 -5
0 -10 -4 -10 -9z"/>
<path d="M2094 5514 c3 -9 6 -20 6 -25 0 -5 7 -9 15 -9 18 0 20 21 3 38 -17
17 -31 15 -24 -4z"/>
<path d="M3080 5503 c1 -13 51 -66 57 -60 3 3 -5 19 -18 36 -23 29 -39 39 -39
24z"/>
<path d="M11130 5492 c-11 -13 -11 -14 1 -10 8 3 26 -6 41 -19 14 -14 31 -22
37 -19 16 10 13 26 -4 26 -8 0 -15 3 -15 8 0 4 -11 12 -23 18 -18 8 -26 7 -37
-4z"/>
<path d="M1996 5491 c-4 -7 -5 -15 -2 -18 9 -9 19 4 14 18 -4 11 -6 11 -12 0z"/>
<path d="M1895 5450 c-3 -5 -1 -10 4 -10 6 0 11 5 11 10 0 6 -2 10 -4 10 -3 0
-8 -4 -11 -10z"/>
<path d="M3210 5453 c1 -16 50 -68 50 -53 -1 8 -9 25 -19 38 -19 22 -31 28
-31 15z"/>
<path d="M1760 5420 c0 -5 9 -10 19 -10 11 0 23 5 26 10 4 6 -5 10 -19 10 -14
0 -26 -4 -26 -10z"/>
<path d="M11260 5413 c0 -12 59 -43 81 -43 10 0 19 5 19 10 0 6 -8 10 -18 10
-10 0 -27 7 -38 15 -21 16 -44 20 -44 8z"/>
<path d="M1705 5400 c-3 -5 3 -10 14 -10 11 0 23 5 26 10 3 6 -3 10 -14 10
-11 0 -23 -4 -26 -10z"/>
<path d="M1900 5400 c0 -5 5 -10 10 -10 6 0 10 5 10 10 0 6 -4 10 -10 10 -5 0
-10 -4 -10 -10z"/>
<path d="M3160 5401 c0 -16 38 -56 46 -49 4 4 -5 19 -19 32 -15 14 -27 21 -27
17z"/>
<path d="M3364 5342 c-6 -4 -33 -26 -60 -49 -27 -22 -91 -75 -141 -117 -51
-42 -93 -81 -93 -86 0 -24 23 -17 62 17 24 22 68 59 98 83 68 54 160 142 160
152 0 10 -11 10 -26 0z"/>
<path d="M3116 5325 c4 -8 12 -15 20 -15 19 0 18 16 -2 24 -22 9 -24 8 -18 -9z"/>
<path d="M11460 5297 c0 -19 16 -31 24 -18 3 5 -1 14 -9 21 -12 10 -15 10 -15
-3z"/>
<path d="M11490 5263 c0 -5 9 -18 20 -28 11 -10 20 -15 20 -11 0 4 -9 16 -20
28 -11 12 -20 17 -20 11z"/>
<path d="M11590 5192 c0 -5 7 -13 16 -16 10 -4 14 -1 12 6 -5 15 -28 23 -28
10z"/>
<path d="M11790 5170 c0 -5 5 -10 10 -10 6 0 10 5 10 10 0 6 -4 10 -10 10 -5
0 -10 -4 -10 -10z"/>
<path d="M11660 5122 c0 -11 7 -22 15 -26 9 -3 15 0 15 8 0 7 -7 19 -15 26
-12 10 -15 9 -15 -8z"/>
<path d="M145 5070 c-4 -6 8 -10 29 -10 20 0 36 5 36 10 0 6 -13 10 -29 10
-17 0 -33 -4 -36 -10z"/>
<path d="M64 5045 c-10 -8 -29 -15 -41 -15 -13 0 -23 -4 -23 -10 0 -5 11 -10
25 -10 14 0 25 5 25 10 0 6 20 10 45 10 45 0 60 12 29 24 -24 9 -39 7 -60 -9z"/>
<path d="M2070 5049 c0 -17 51 -59 72 -59 7 0 4 6 -7 12 -11 6 -30 23 -42 37
-16 19 -22 22 -23 10z"/>
<path d="M11720 5038 c1 -14 49 -53 56 -45 6 5 -40 57 -50 57 -3 0 -6 -6 -6
-12z"/>
<path d="M3920 4999 c0 -5 5 -7 10 -4 6 3 10 8 10 11 0 2 -4 4 -10 4 -5 0 -10
-5 -10 -11z"/>
<path d="M2160 4985 c0 -2 9 -9 20 -15 24 -13 50 -2 29 11 -15 9 -49 12 -49 4z"/>
<path d="M11783 4946 c9 -7 17 -20 17 -28 0 -8 7 -23 15 -34 14 -18 14 -18 14
6 0 28 -30 70 -51 70 -9 -1 -8 -5 5 -14z"/>
<path d="M2710 4918 c-46 -29 -65 -40 -125 -73 -27 -15 -57 -33 -65 -40 -8 -7
-31 -15 -50 -17 -26 -2 -34 -7 -32 -20 1 -10 -6 -19 -20 -23 -33 -9 -71 -28
-86 -42 -7 -7 -19 -13 -26 -13 -7 0 -25 -12 -39 -26 -19 -19 -33 -25 -48 -21
-32 9 -58 -9 -52 -33 4 -14 0 -20 -11 -20 -21 0 -124 -55 -152 -81 -11 -10
-26 -19 -34 -19 -7 0 -28 -11 -46 -25 -18 -14 -40 -25 -49 -25 -9 0 -27 -11
-41 -25 -14 -14 -33 -25 -42 -25 -9 0 -29 -11 -44 -25 -15 -14 -35 -25 -44
-25 -9 0 -32 -13 -51 -30 -18 -16 -40 -30 -48 -30 -8 0 -31 -11 -51 -25 -20
-14 -43 -25 -50 -25 -7 0 -19 -6 -26 -13 -21 -19 -66 -47 -78 -47 -6 0 -26
-11 -44 -25 -18 -14 -40 -25 -50 -25 -9 0 -35 -13 -58 -30 -22 -16 -46 -30
-53 -30 -6 0 -27 -11 -46 -25 -19 -14 -57 -37 -86 -50 -28 -14 -55 -30 -58
-35 -3 -6 -14 -10 -23 -10 -9 0 -37 -14 -61 -30 -24 -17 -51 -30 -60 -30 -9
-1 -32 -14 -51 -30 -39 -34 -88 -39 -152 -17 -49 17 -54 23 -29 37 23 12 29
50 8 50 -15 0 -77 -29 -77 -36 0 -2 19 -23 43 -47 34 -36 51 -46 92 -52 28 -4
61 -7 75 -6 13 1 39 -6 56 -14 18 -8 54 -18 81 -21 26 -3 57 -9 68 -14 89 -37
156 -40 178 -7 8 12 43 37 78 55 35 18 91 51 124 73 33 21 78 47 100 58 22 11
50 29 62 40 12 12 28 21 35 21 8 0 38 16 68 35 30 19 60 35 66 35 6 0 17 7 25
16 7 8 34 26 59 39 25 13 52 31 59 39 8 9 20 16 29 16 8 0 29 10 46 23 17 13
46 29 64 36 17 8 32 17 32 21 0 4 17 15 38 26 20 10 51 28 67 40 17 12 37 24
45 28 8 4 40 22 70 41 30 19 74 44 96 55 23 11 47 27 54 35 7 8 16 15 21 15
13 0 101 62 95 67 -4 5 -74 -28 -141 -66 -118 -67 -145 -84 -155 -96 -6 -7
-25 -17 -41 -20 -16 -4 -29 -11 -29 -16 0 -5 -19 -18 -42 -30 -24 -12 -45 -25
-48 -29 -3 -4 -22 -13 -42 -21 -21 -7 -38 -17 -38 -21 0 -5 -17 -17 -38 -26
-20 -9 -51 -27 -69 -39 -17 -13 -36 -23 -41 -23 -6 0 -23 -10 -39 -23 -15 -13
-64 -43 -108 -67 -44 -24 -94 -54 -111 -67 -17 -13 -38 -23 -46 -23 -9 0 -21
-6 -27 -14 -7 -8 -33 -24 -59 -36 -26 -12 -49 -26 -52 -30 -3 -3 -27 -19 -55
-35 -27 -15 -86 -50 -131 -77 l-80 -49 -53 12 c-38 8 -51 15 -49 26 2 9 10 19
18 23 8 4 26 13 40 20 14 8 44 24 68 37 24 13 60 34 80 48 20 14 42 25 49 25
6 0 24 10 40 23 15 13 47 31 70 41 23 10 50 27 59 37 9 10 29 21 44 24 15 3
38 17 50 31 13 13 31 24 41 24 10 0 30 11 46 23 15 13 42 29 60 35 17 6 41 20
53 32 11 11 34 23 51 27 16 3 38 16 48 29 10 13 28 24 39 24 11 0 30 11 43 25
13 13 33 25 45 25 11 0 31 11 44 25 13 14 31 25 41 25 10 0 31 11 47 25 17 14
36 25 45 25 8 0 25 11 38 23 13 13 35 27 49 31 14 3 41 20 60 36 31 27 32 30
12 30 -12 0 -46 -16 -76 -35 -30 -19 -60 -35 -66 -35 -5 0 -10 -4 -10 -8 0 -5
-19 -19 -42 -31 -24 -12 -65 -36 -93 -51 -27 -16 -66 -37 -85 -47 -19 -10 -42
-24 -50 -32 -8 -8 -28 -20 -45 -28 -16 -8 -57 -29 -90 -48 -33 -19 -79 -44
-102 -56 -23 -11 -47 -27 -54 -35 -6 -8 -18 -14 -27 -14 -8 0 -23 -7 -33 -16
-16 -15 -80 -52 -159 -92 -19 -10 -57 -32 -84 -50 -28 -18 -60 -32 -72 -32
-12 0 -24 -8 -26 -18 -3 -10 -23 -24 -49 -32 -24 -8 -49 -20 -56 -26 -7 -7
-41 -28 -77 -48 -52 -29 -69 -34 -88 -27 -13 5 -36 12 -52 16 l-30 6 30 24
c16 13 36 25 44 25 8 0 26 9 40 20 14 11 32 20 41 20 9 0 22 7 30 16 17 21 83
54 107 54 11 0 22 8 25 18 2 11 17 21 34 25 17 3 37 12 45 20 8 8 34 25 59 37
24 12 53 30 64 40 11 9 32 20 47 24 15 3 35 14 45 24 10 10 34 25 53 32 19 8
50 25 69 37 19 13 41 23 50 23 9 0 26 11 39 24 12 14 35 27 51 31 16 3 38 17
50 30 11 14 32 25 45 25 14 0 31 8 38 19 7 10 24 22 38 26 14 4 34 15 45 25
11 10 32 22 47 25 14 4 34 15 44 26 9 10 23 19 29 19 7 0 29 11 49 25 20 14
43 25 50 25 7 0 29 16 49 35 29 28 44 35 76 35 34 0 42 4 53 28 8 16 23 28 38
30 13 2 30 13 38 23 7 10 22 19 32 19 29 0 50 11 50 26 0 31 49 40 105 19 14
-5 16 -4 7 3 -23 16 -9 46 25 57 17 6 40 18 51 28 10 9 26 17 34 17 9 0 21 6
27 14 6 7 25 16 41 20 21 4 30 11 30 26 0 26 -16 25 -60 -2z"/>
<path d="M3050 4924 c0 -9 7 -14 17 -12 25 5 28 28 4 28 -12 0 -21 -6 -21 -16z"/>
<path d="M3507 4934 c-6 -6 35 -44 47 -44 14 0 4 30 -13 40 -23 12 -26 12 -34
4z"/>
<path d="M3112 4909 c2 -6 8 -10 13 -10 5 0 11 4 13 10 2 6 -4 11 -13 11 -9 0
-15 -5 -13 -11z"/>
<path d="M3267 4899 c6 -21 29 -36 40 -25 6 6 -30 46 -41 46 -2 0 -2 -9 1 -21z"/>
<path d="M3335 4910 c-8 -13 24 -60 41 -60 18 0 17 4 -1 40 -16 31 -29 37 -40
20z"/>
<path d="M3735 4900 c-3 -5 1 -10 10 -10 9 0 13 5 10 10 -3 6 -8 10 -10 10 -2
0 -7 -4 -10 -10z"/>
<path d="M3896 4887 c-16 -12 -16 -14 -2 -26 21 -17 20 -37 0 -45 -10 -4 -14
-14 -11 -26 5 -21 -7 -28 -18 -10 -9 15 -45 12 -45 -3 0 -7 5 -18 11 -24 21
-21 -12 -25 -35 -4 -29 27 -36 26 -36 -4 0 -23 -2 -24 -21 -15 -11 6 -22 18
-25 26 -16 52 -14 51 -26 31 -5 -10 -7 -29 -4 -42 6 -23 5 -23 -24 -14 -30 11
-39 32 -20 44 12 8 13 35 1 35 -5 0 -14 -13 -21 -30 -15 -35 -25 -38 -40 -10
-6 11 -17 20 -26 20 -8 0 -17 7 -20 15 -4 8 -13 15 -21 15 -10 0 -12 6 -8 19
4 13 -1 24 -17 35 -13 10 -24 12 -26 6 -2 -5 -14 -10 -27 -10 -49 0 -35 -28
29 -60 17 -8 44 -27 60 -43 17 -15 40 -30 51 -33 11 -4 27 -13 36 -21 9 -7 41
-15 72 -16 31 -1 59 -5 62 -9 6 -6 50 -3 102 8 12 2 31 14 42 25 17 18 28 20
88 17 37 -3 125 -16 194 -31 69 -15 151 -29 182 -33 51 -6 57 -5 80 20 13 14
30 26 37 26 22 0 140 61 140 72 0 7 -14 8 -35 5 -30 -5 -40 -1 -63 22 -15 15
-40 31 -56 35 -16 4 -30 15 -33 26 -13 50 -52 3 -53 -62 0 -44 -2 -48 -25 -48
-14 0 -29 8 -35 20 -6 11 -21 20 -34 20 -13 0 -29 6 -35 14 -10 12 -86 39
-116 41 -40 3 -106 19 -111 26 -8 14 -98 11 -118 -4z m380 -115 c10 -10 27
-21 37 -25 31 -12 8 -27 -41 -27 -64 0 -76 9 -61 43 14 31 37 34 65 9z m109
-32 c3 -6 -1 -13 -10 -16 -19 -8 -30 0 -20 15 8 14 22 14 30 1z"/>
<path d="M2827 4877 c-2 -7 -27 -24 -53 -37 -27 -13 -65 -37 -85 -52 -20 -15
-46 -28 -57 -28 -31 0 -51 -10 -46 -23 2 -7 -17 -22 -43 -35 -27 -12 -73 -38
-103 -57 -40 -25 -67 -34 -98 -35 -26 0 -41 -4 -37 -10 3 -5 28 -10 56 -10 42
0 61 7 129 50 44 28 84 50 90 50 6 0 15 11 20 25 8 20 16 25 46 25 27 0 41 7
56 25 11 14 26 25 33 25 22 0 135 77 135 91 0 14 -37 10 -43 -4z"/>
<path d="M3687 4884 c-14 -14 -7 -35 11 -32 9 2 17 10 17 17 0 16 -18 25 -28
15z"/>
<path d="M3005 4868 c-11 -6 -43 -26 -72 -44 -28 -19 -54 -34 -57 -34 -3 0
-30 -17 -58 -37 -52 -37 -52 -38 -24 -41 19 -3 32 3 42 16 7 11 35 32 61 47
86 50 143 88 143 97 0 11 -11 10 -35 -4z"/>
<path d="M3565 4860 c-3 -5 -2 -10 4 -10 5 0 13 5 16 10 3 6 2 10 -4 10 -5 0
-13 -4 -16 -10z"/>
<path d="M3747 4862 c-26 -5 -17 -36 11 -40 33 -5 53 5 46 22 -6 16 -30 24
-57 18z"/>
<path d="M11834 4852 c3 -5 6 -34 7 -66 1 -31 9 -65 16 -74 12 -15 13 -6 7 58
-7 80 -10 90 -25 90 -6 0 -8 -4 -5 -8z"/>
<path d="M2249 4798 c-15 -29 -28 -38 -55 -38 -12 0 -24 -6 -27 -14 -3 -7 -18
-17 -34 -20 -15 -4 -38 -17 -51 -29 -14 -13 -35 -21 -56 -20 -25 1 -35 -4 -39
-17 -3 -11 -27 -30 -53 -43 -102 -51 -119 -60 -134 -72 -8 -7 -26 -16 -40 -20
-14 -4 -38 -18 -53 -31 -18 -15 -41 -24 -63 -24 -24 0 -34 -5 -34 -15 0 -22
75 -20 108 3 15 11 41 26 57 34 17 9 53 28 80 43 28 16 66 37 85 47 19 10 45
30 58 44 14 14 30 23 38 20 8 -3 33 5 54 19 22 14 45 25 51 25 6 0 23 8 37 18
15 10 45 26 67 34 33 13 41 21 43 47 4 38 -21 43 -39 9z"/>
<path d="M3096 4805 c-8 -8 -20 -15 -27 -15 -7 0 -27 -11 -45 -25 -18 -14 -36
-25 -41 -25 -4 0 -24 -14 -43 -30 l-35 -29 29 -1 c18 0 35 9 48 25 10 14 48
41 84 61 35 20 64 40 64 45 0 14 -17 11 -34 -6z"/>
<path d="M3252 4785 c-17 -14 -33 -25 -37 -25 -5 0 -22 -10 -39 -23 -46 -35
-105 -67 -122 -67 -18 0 -18 -19 0 -26 15 -6 255 144 256 159 0 15 -30 6 -58
-18z"/>
<path d="M3284 4713 c-104 -75 -553 -369 -866 -569 -214 -136 -410 -263 -613
-396 -124 -81 -237 -154 -252 -161 -39 -20 -137 -20 -203 -1 -30 9 -91 25
-135 36 -44 11 -107 26 -140 34 -77 20 -201 50 -289 69 -38 9 -77 20 -87 26
-33 17 -22 -12 26 -71 48 -59 98 -87 175 -101 25 -4 63 -12 85 -17 22 -6 94
-18 160 -27 66 -9 155 -23 198 -32 116 -22 160 -13 243 49 28 21 54 38 59 38
4 0 23 11 41 25 18 14 36 25 39 25 4 0 39 23 79 52 39 29 101 70 138 92 36 23
118 75 183 116 64 41 124 80 133 85 9 6 55 35 102 66 47 31 104 66 127 78 23
11 57 34 75 50 18 15 71 52 117 81 46 28 93 61 104 71 11 10 29 22 40 25 20 6
162 99 185 121 7 7 18 13 24 13 5 0 28 15 51 34 61 49 222 146 243 146 14 0
15 3 6 12 -13 13 0 45 27 65 9 6 13 14 10 17 -3 3 -41 -20 -85 -51z"/>
<path d="M2713 4723 c9 -2 25 -2 35 0 9 3 1 5 -18 5 -19 0 -27 -2 -17 -5z"/>
<path d="M2855 4700 c3 -5 11 -10 16 -10 6 0 7 5 4 10 -3 6 -11 10 -16 10 -6
0 -7 -4 -4 -10z"/>
<path d="M2998 4673 c6 -2 18 -2 25 0 6 3 1 5 -13 5 -14 0 -19 -2 -12 -5z"/>
<path d="M12030 4644 c0 -8 5 -12 10 -9 6 3 10 10 10 16 0 5 -4 9 -10 9 -5 0
-10 -7 -10 -16z"/>
<path d="M2984 4615 c-17 -8 -36 -21 -43 -29 -8 -9 -19 -16 -26 -16 -8 0 -26
-11 -42 -24 -16 -14 -41 -28 -56 -31 -15 -4 -24 -11 -21 -16 9 -16 44 -10 77
14 18 12 39 27 48 32 111 69 143 105 63 70z"/>
<path d="M2765 4600 c-16 -17 -16 -20 -2 -20 26 0 47 11 47 26 0 20 -24 17
-45 -6z"/>
<path d="M12012 4590 c0 -14 2 -19 5 -12 2 6 2 18 0 25 -3 6 -5 1 -5 -13z"/>
<path d="M11980 4546 c0 -8 -11 -28 -25 -44 -14 -17 -25 -35 -25 -42 0 -12
-12 -29 -80 -114 -19 -25 -46 -61 -60 -82 -14 -21 -41 -54 -60 -73 -19 -20
-43 -49 -54 -65 -10 -16 -31 -33 -47 -39 -21 -8 -29 -18 -29 -35 0 -13 -4 -20
-10 -17 -17 10 -32 -5 -20 -20 8 -9 8 -15 0 -20 -5 -3 -10 -4 -10 -1 0 8 -70
-63 -71 -72 0 -4 -7 -11 -15 -15 -8 -4 -14 -15 -14 -22 0 -8 -4 -15 -8 -15
-16 0 -57 -42 -54 -55 2 -12 -14 -28 -67 -65 -11 -8 -21 -22 -21 -31 0 -9 -12
-25 -27 -35 -42 -26 -71 -57 -67 -68 2 -6 -12 -22 -30 -36 -19 -14 -32 -28
-30 -32 2 -3 -16 -27 -41 -52 -25 -26 -45 -49 -45 -52 0 -4 -7 -12 -16 -18
-14 -10 -14 -15 0 -41 17 -33 14 -44 -9 -25 -19 15 -65 5 -65 -15 0 -8 -4 -15
-8 -15 -5 0 -17 -18 -27 -40 -12 -27 -22 -37 -28 -31 -13 13 -95 -54 -103 -84
-3 -12 -18 -29 -32 -36 -15 -8 -40 -29 -57 -47 -16 -18 -48 -52 -70 -75 -22
-24 -58 -66 -80 -95 -21 -29 -43 -52 -47 -52 -4 0 -8 -5 -8 -12 0 -6 -9 -21
-19 -32 -10 -12 -32 -46 -48 -76 -16 -30 -40 -73 -54 -95 -34 -55 -49 -92 -49
-120 0 -14 -4 -25 -8 -25 -4 0 -14 -21 -21 -47 -8 -27 -21 -58 -29 -70 -7 -12
-11 -27 -8 -32 6 -8 -13 -103 -31 -161 -7 -19 -14 -78 -14 -110 -1 -14 -6 -31
-12 -38 -8 -10 -7 -16 4 -24 11 -7 11 -11 2 -15 -16 -6 -17 -30 -1 -35 8 -3 4
-16 -12 -39 -13 -19 -17 -28 -8 -21 27 22 33 -6 7 -34 -18 -19 -19 -24 -6 -24
25 0 28 -15 7 -38 -26 -27 -25 -35 1 -27 18 6 19 5 7 -14 -7 -12 -16 -21 -20
-21 -5 0 -8 -7 -8 -15 0 -8 7 -15 15 -15 26 0 -9 -43 -73 -91 -31 -24 -58 -46
-60 -51 -2 -4 -17 -8 -33 -8 -33 0 -40 23 -11 39 9 6 12 11 5 11 -6 0 -15 -4
-18 -10 -10 -16 -72 -12 -79 5 -3 8 -13 15 -22 15 -10 0 -14 5 -10 15 3 8 1
15 -4 15 -5 0 -15 6 -22 13 -7 7 -39 29 -71 47 -31 19 -59 42 -62 50 -3 8 -23
23 -44 33 -50 23 -81 50 -81 71 0 9 -8 16 -19 16 -28 0 -75 46 -65 62 12 19
11 49 -3 85 -7 18 -9 33 -6 33 3 0 -1 8 -9 18 -15 16 -33 85 -30 108 1 6 -5
17 -13 24 -8 7 -15 17 -15 22 0 6 -6 24 -14 41 -7 18 -19 52 -25 77 -12 47
-24 77 -47 122 -8 14 -14 33 -14 41 0 8 -7 20 -15 27 -8 7 -15 21 -15 32 0 10
-6 29 -14 41 -8 12 -17 39 -20 59 -4 20 -13 50 -21 65 -8 15 -15 36 -15 46 0
9 -3 17 -8 17 -4 0 -13 15 -21 33 -7 17 -20 45 -27 61 -8 16 -14 35 -14 41 0
7 -6 15 -14 18 -7 3 -16 18 -19 34 -7 33 -32 71 -42 62 -3 -4 5 -29 18 -55 71
-140 120 -259 124 -298 6 -50 -9 -105 -44 -157 l-23 -35 40 -94 c35 -81 40
-104 40 -169 0 -42 5 -94 10 -116 22 -99 31 -275 20 -372 -10 -80 -10 -98 2
-102 7 -2 27 -18 44 -36 24 -23 31 -37 27 -57 -3 -14 -1 -28 4 -31 5 -3 72 0
149 8 76 7 182 16 234 20 52 3 110 11 127 18 25 8 36 8 45 -1 7 -7 27 -12 45
-12 23 0 33 -5 33 -15 0 -9 9 -15 25 -15 14 0 25 -4 25 -10 0 -5 -5 -9 -12 -7
-6 1 -14 -7 -16 -17 -3 -15 0 -18 17 -13 25 6 26 3 5 -18 -13 -13 -19 -13 -33
-3 -13 10 -13 9 2 -8 9 -11 17 -26 17 -32 0 -17 -35 -15 -51 4 -11 14 -14 14
-24 1 -9 -12 -46 -26 -90 -33 -5 -1 -14 -3 -20 -4 -5 -1 -18 -2 -27 -1 -10 1
-18 -3 -18 -8 0 -6 -9 -11 -20 -11 -11 0 -20 -7 -20 -15 0 -18 36 -20 43 -2 2
6 8 8 13 4 4 -4 3 -17 -4 -28 -17 -26 -10 -35 33 -43 26 -5 35 -12 35 -26 0
-20 -53 -55 -68 -46 -5 3 -13 -4 -20 -15 -11 -17 -9 -19 12 -19 14 0 28 -4 31
-10 11 -18 35 -11 35 10 0 17 5 19 27 16 16 -3 31 0 37 9 6 8 22 16 36 18 14
2 19 2 12 0 -39 -13 55 -84 108 -81 41 2 90 27 90 45 0 7 5 13 11 13 5 0 9
-10 7 -22 -3 -20 2 -23 37 -25 22 -1 59 7 82 18 24 10 48 19 55 19 7 0 1 11
-14 25 -33 30 -41 32 -33 5 10 -30 -26 -25 -49 6 -15 21 -16 28 -5 35 7 4 18
4 24 0 21 -17 45 -8 45 16 0 13 4 23 8 23 15 0 9 34 -7 48 -9 8 -10 11 -4 7 7
-3 22 -1 33 5 17 9 20 17 14 44 -5 29 -3 34 16 39 16 4 21 11 16 22 -3 10 -2
14 5 10 6 -4 13 2 16 14 3 14 13 21 29 21 34 0 30 26 -6 45 -27 14 -30 20 -31
68 -3 79 -1 136 6 202 4 33 8 85 10 115 8 137 55 332 145 590 32 92 174 345
269 480 17 25 55 79 83 120 73 105 118 164 134 173 19 11 18 37 -2 37 -11 0
-14 5 -10 16 3 9 6 18 6 20 0 2 6 4 14 4 13 0 46 56 46 79 0 6 6 11 14 11 7 0
40 30 71 68 32 37 92 105 135 152 193 213 391 454 487 590 119 170 165 260
133 260 -5 0 -10 -6 -10 -14z m-960 -1236 c0 -11 -7 -20 -15 -20 -8 0 -15 9
-15 20 0 11 7 20 15 20 8 0 15 -9 15 -20z m-144 -125 c-3 -8 -12 -15 -21 -15
-14 0 -14 3 2 24 18 24 30 18 19 -9z m-34 -47 c-6 -6 -15 -8 -19 -4 -4 4 -1
11 7 16 19 12 27 3 12 -12z m-32 -27 c0 -6 -4 -13 -10 -16 -5 -3 -10 1 -10 9
0 9 5 16 10 16 6 0 10 -4 10 -9z m-65 -171 c-3 -5 -11 -10 -16 -10 -6 0 -7 5
-4 10 3 6 11 10 16 10 6 0 7 -4 4 -10z m-505 -1267 c-1 -5 -21 -28 -45 -53
-30 -31 -48 -41 -55 -34 -7 7 -1 19 18 39 40 42 83 67 82 48z m-8 -65 c-7 -7
-12 -8 -12 -2 0 14 12 26 19 19 2 -3 -1 -11 -7 -17z m-315 -243 c23 -20 25
-24 10 -25 -23 0 -68 30 -61 41 9 14 21 11 51 -16z m58 -76 c-1 -20 -33 -59
-47 -59 -14 0 -9 39 8 58 20 24 41 24 39 1z m243 9 c-6 -18 -28 -21 -28 -4 0
9 7 16 16 16 9 0 14 -5 12 -12z m52 -43 c0 -20 -28 -31 -42 -17 -10 10 8 23
40 31 1 1 2 -6 2 -14z m10 -55 c0 -5 -2 -10 -4 -10 -3 0 -8 5 -11 10 -3 6 -1
10 4 10 6 0 11 -4 11 -10z"/>
<path d="M11815 4530 c-3 -5 1 -10 9 -10 9 0 16 5 16 10 0 6 -4 10 -9 10 -6 0
-13 -4 -16 -10z"/>
<path d="M2733 4523 c9 -2 23 -2 30 0 6 3 -1 5 -18 5 -16 0 -22 -2 -12 -5z"/>
<path d="M2594 4495 c-16 -13 -33 -24 -37 -25 -4 0 -31 -15 -60 -33 -29 -18
-59 -36 -67 -40 -8 -4 -35 -21 -60 -37 -25 -16 -63 -39 -84 -51 -21 -11 -73
-43 -114 -70 -42 -27 -80 -49 -85 -49 -5 0 -22 -11 -39 -25 -16 -14 -35 -25
-42 -25 -7 0 -23 -11 -36 -24 -12 -14 -35 -28 -51 -31 -16 -4 -32 -12 -36 -19
-11 -16 -59 -46 -76 -46 -8 0 -22 -9 -32 -20 -10 -11 -27 -22 -39 -26 -11 -3
-36 -17 -54 -31 -17 -13 -48 -31 -67 -39 -19 -8 -35 -18 -35 -23 0 -5 -23 -18
-51 -30 -27 -12 -53 -29 -56 -36 -3 -8 -11 -15 -18 -15 -7 0 -18 -7 -25 -15
-7 -8 -23 -15 -35 -15 -13 0 -25 -4 -27 -8 -1 -5 -23 -23 -46 -40 -41 -29 -47
-31 -108 -25 -42 4 -64 2 -64 -5 0 -13 50 -25 118 -27 30 -1 57 -7 61 -14 5
-7 37 -17 72 -23 l65 -11 64 42 c36 24 67 47 68 52 2 5 8 9 14 9 5 0 35 18 65
40 31 22 60 40 65 40 6 0 31 14 56 32 114 77 131 88 138 88 4 0 22 11 40 25
18 14 35 25 39 25 3 0 38 21 78 47 196 127 269 174 342 218 44 27 89 57 101
67 11 10 24 18 28 18 4 0 37 19 74 43 37 24 84 54 105 66 36 22 48 41 26 41
-7 0 -28 -10 -48 -22 -19 -13 -43 -27 -52 -33 -10 -5 -59 -37 -111 -69 -51
-33 -102 -64 -113 -70 -11 -6 -45 -27 -75 -48 -120 -79 -443 -278 -452 -278
-6 0 -24 -12 -42 -26 -63 -51 -136 -94 -161 -94 -14 0 -25 -5 -25 -11 0 -28
-55 -59 -107 -60 -21 -1 -30 -3 -20 -6 27 -7 21 -19 -28 -52 -77 -52 -79 -53
-150 -40 -36 7 -64 17 -62 22 2 6 39 31 83 56 45 25 93 56 108 68 15 12 40 25
56 28 17 4 30 10 30 15 0 11 59 45 93 54 15 3 27 13 27 20 0 8 20 24 45 37 24
13 104 62 177 108 73 46 151 94 173 107 22 12 74 43 115 68 41 25 78 46 83 46
5 0 23 12 41 26 37 30 125 85 181 113 52 26 111 76 99 84 -6 3 -23 -5 -40 -18z"/>
<path d="M11872 4490 c0 -14 2 -19 5 -12 2 6 2 18 0 25 -3 6 -5 1 -5 -13z"/>
<path d="M11820 4450 c0 -5 5 -10 10 -10 6 0 10 5 10 10 0 6 -4 10 -10 10 -5
0 -10 -4 -10 -10z"/>
<path d="M1557 4410 c-14 -11 -36 -20 -50 -20 -15 0 -31 -9 -41 -25 -11 -17
-26 -25 -44 -25 -17 0 -38 -10 -52 -25 -13 -14 -34 -25 -47 -25 -13 0 -33 -11
-45 -25 -15 -17 -36 -27 -70 -31 -54 -7 -59 -24 -10 -36 25 -7 39 -4 71 16 21
14 54 32 72 40 19 9 61 31 94 50 33 19 79 43 102 54 41 20 71 56 54 66 -5 3
-20 -3 -34 -14z"/>
<path d="M11790 4395 c0 -19 5 -35 10 -35 6 0 10 16 10 35 0 19 -4 35 -10 35
-5 0 -10 -16 -10 -35z"/>
<path d="M8857 4209 c-16 -52 -35 -110 -42 -129 -11 -30 -11 -40 1 -60 7 -14
13 -40 14 -58 0 -22 13 -50 40 -87 22 -30 42 -55 44 -55 8 0 3 166 -6 182 -5
11 -4 25 4 37 9 15 9 25 0 46 -7 14 -13 56 -13 93 -1 37 -4 80 -8 96 -5 25
-10 16 -34 -65z"/>
<path d="M11710 4246 c0 -22 17 -28 24 -10 9 22 8 24 -9 24 -8 0 -15 -6 -15
-14z"/>
<path d="M1095 4164 c-22 -13 -47 -24 -56 -24 -9 0 -24 -9 -33 -19 -10 -11
-31 -23 -47 -26 -15 -4 -38 -14 -51 -24 -29 -22 -87 -51 -103 -51 -6 0 -22
-11 -35 -25 -19 -20 -33 -25 -73 -25 -55 0 -59 -14 -10 -35 31 -13 57 -5 143
44 8 5 33 18 55 29 43 23 140 76 165 91 8 5 31 16 51 25 37 16 56 43 42 57 -4
4 -26 -3 -48 -17z"/>
<path d="M11670 4176 c0 -9 5 -16 10 -16 6 0 10 4 10 9 0 6 -4 13 -10 16 -5 3
-10 -1 -10 -9z"/>
<path d="M552 4025 c-35 -18 -66 -35 -69 -39 -9 -9 45 -56 64 -56 14 0 13 4
-5 20 -12 12 -22 23 -22 25 0 2 20 14 45 26 25 12 45 26 45 31 0 4 9 8 19 8
11 0 23 5 26 10 13 21 -42 7 -103 -25z"/>
<path d="M717 4050 c-55 -10 -57 -20 -4 -20 35 0 47 4 47 15 0 8 -1 14 -2 14
-2 -1 -20 -5 -41 -9z"/>
<path d="M631 3984 c0 -11 3 -14 6 -6 3 7 2 16 -1 19 -3 4 -6 -2 -5 -13z"/>
<path d="M5057 3786 c-15 -12 -16 -14 -2 -20 8 -3 15 -16 16 -28 1 -22 1 -22
9 2 18 56 11 71 -23 46z"/>
<path d="M5971 3783 c-1 -12 -4 -28 -7 -37 -4 -11 -1 -16 10 -16 17 0 19 11 6
50 -7 23 -8 23 -9 3z"/>
<path d="M5216 3765 c-10 -16 -16 -46 -16 -88 0 -59 2 -66 28 -83 23 -16 44
-19 137 -17 156 2 495 25 495 34 0 4 15 30 34 58 20 29 29 51 22 51 -6 0 -17
-5 -23 -11 -12 -12 -90 -23 -393 -60 -246 -29 -277 -19 -268 86 3 30 4 55 2
55 -1 0 -9 -11 -18 -25z"/>
<path d="M4989 3768 c0 -2 -2 -23 -4 -48 -2 -25 -11 -72 -19 -105 -9 -32 -16
-67 -16 -77 0 -10 -5 -27 -12 -38 -17 -27 -3 -36 26 -17 20 14 52 21 109 26 4
1 3 9 -2 19 -12 22 -12 90 0 98 5 3 9 24 8 47 l-1 42 -8 -35 c-5 -19 -6 -38
-4 -42 2 -3 0 -9 -6 -13 -5 -3 -10 -26 -10 -51 0 -42 -1 -44 -29 -44 -22 0
-30 5 -33 23 -3 13 -1 32 3 43 4 10 8 47 8 80 1 45 5 63 16 68 22 8 18 26 -5
26 -11 0 -20 -1 -21 -2z"/>
<path d="M3775 3741 c-6 -11 11 -17 75 -26 l45 -7 -37 21 c-40 22 -73 27 -83
12z"/>
<path d="M4772 3638 c-11 -18 -18 -36 -15 -40 2 -5 13 8 24 28 24 48 18 55 -9
12z"/>
<path d="M11227 3508 c-37 -40 -67 -75 -67 -78 0 -3 -9 -11 -20 -18 -22 -13
-28 -44 -7 -36 7 2 31 28 52 56 22 28 57 70 78 92 32 34 45 56 34 56 -1 0 -33
-32 -70 -72z"/>
<path d="M3780 3511 c0 -5 6 -14 14 -20 18 -15 27 -49 15 -57 -5 -3 -9 -12 -9
-20 0 -17 98 -144 111 -144 5 0 12 13 15 30 4 16 22 47 41 70 25 29 32 44 25
53 -17 20 -178 97 -203 97 -5 0 -9 -4 -9 -9z"/>
<path d="M863 3454 c-1 -23 2 -34 10 -31 15 5 16 59 2 64 -5 1 -11 -13 -12
-33z"/>
<path d="M8897 3483 c-6 -11 9 -49 22 -58 6 -3 11 -21 11 -39 0 -36 15 -56 42
-56 23 0 23 6 -2 37 -11 14 -20 32 -20 39 0 8 -4 14 -9 14 -5 0 -12 13 -16 30
-7 31 -20 46 -28 33z"/>
<path d="M837 3413 c-4 -3 -7 -11 -7 -17 0 -6 5 -5 12 2 6 6 9 14 7 17 -3 3
-9 2 -12 -2z"/>
<path d="M894 3402 c-6 -4 -41 -50 -79 -102 -38 -52 -71 -97 -75 -100 -4 -3
-19 -23 -34 -45 -15 -22 -37 -54 -49 -70 -12 -17 -58 -80 -102 -140 -43 -61
-82 -112 -85 -115 -4 -3 -38 -48 -75 -100 -38 -52 -72 -99 -77 -105 -5 -5 -47
-62 -94 -125 -46 -63 -98 -133 -115 -155 -97 -127 -109 -147 -109 -183 0 -34
1 -35 15 -17 84 107 440 594 528 724 22 31 55 76 75 100 21 24 60 77 87 116
106 152 200 280 212 288 7 4 13 15 13 22 0 16 -18 19 -36 7z"/>
<path d="M1069 3383 c-1 -5 -1 -12 0 -17 1 -5 -9 -21 -22 -35 -36 -41 -67 -85
-161 -234 -48 -76 -94 -146 -102 -155 -8 -9 -34 -46 -58 -82 -66 -100 -135
-200 -157 -229 -11 -14 -56 -78 -99 -141 -43 -63 -89 -128 -102 -144 -13 -16
-30 -42 -38 -57 -8 -16 -52 -83 -98 -149 -45 -67 -82 -126 -82 -131 0 -27 35
-2 73 51 23 33 59 84 80 112 20 28 37 57 37 63 0 6 8 20 18 31 19 21 17 19
127 181 43 65 94 136 112 159 18 23 33 44 33 48 0 3 34 53 75 111 41 58 75
109 75 114 0 4 15 25 33 47 36 43 167 237 167 248 0 3 16 28 36 55 19 28 45
69 58 93 19 37 27 43 59 46 20 2 37 7 37 13 0 11 -99 13 -101 2z"/>
<path d="M793 3349 c-12 -19 -31 -44 -43 -57 -12 -12 -20 -28 -18 -34 2 -6 14
4 25 23 12 19 31 44 43 57 12 12 20 28 18 34 -2 6 -14 -4 -25 -23z"/>
<path d="M560 3239 c0 -5 5 -7 10 -4 6 3 10 8 10 11 0 2 -4 4 -10 4 -5 0 -10
-5 -10 -11z"/>
<path d="M11165 3240 c-3 -5 -1 -10 4 -10 6 0 11 5 11 10 0 6 -2 10 -4 10 -3
0 -8 -4 -11 -10z"/>
<path d="M11220 3239 c0 -7 -22 -34 -50 -60 -27 -26 -50 -55 -50 -63 0 -8 -16
-30 -35 -49 -19 -19 -35 -41 -35 -49 0 -8 -11 -24 -25 -34 -14 -10 -25 -27
-25 -37 0 -10 -11 -28 -25 -41 -14 -13 -25 -31 -25 -40 0 -9 -7 -19 -15 -22
-8 -4 -15 -13 -15 -21 0 -9 -11 -26 -25 -39 -14 -13 -25 -32 -25 -44 0 -11 -4
-20 -10 -20 -5 0 -10 -11 -10 -25 0 -16 -6 -25 -15 -25 -9 0 -15 -9 -15 -25 0
-14 -4 -25 -10 -25 -5 0 -10 -11 -10 -25 0 -16 -6 -25 -15 -25 -9 0 -15 -9
-15 -25 0 -14 -4 -25 -10 -25 -5 0 -10 -16 -10 -35 0 -21 -6 -37 -16 -43 -10
-6 -16 -22 -16 -46 0 -20 7 -45 16 -55 9 -10 16 -35 16 -59 0 -23 5 -42 10
-42 6 0 10 -17 10 -37 0 -21 7 -51 15 -67 8 -15 15 -52 15 -80 0 -29 4 -56 9
-61 5 -6 11 -58 13 -116 2 -68 8 -112 17 -122 25 -31 -1 -632 -30 -661 -5 -6
-9 -28 -9 -49 0 -33 -7 -46 -40 -80 -37 -36 -40 -43 -34 -76 4 -20 11 -44 15
-53 5 -9 9 -34 9 -55 0 -22 5 -44 10 -49 10 -10 18 -44 36 -154 5 -31 2 -39
-27 -64 l-32 -29 27 -24 c15 -12 29 -33 31 -46 3 -12 14 -28 25 -36 11 -7 20
-21 20 -30 0 -9 7 -25 15 -35 8 -11 15 -34 15 -52 0 -17 7 -37 15 -44 8 -7 15
-18 15 -24 0 -7 8 -21 18 -32 27 -32 82 -114 82 -124 0 -6 5 -10 10 -10 6 0
10 -7 10 -15 0 -13 461 -15 4090 -15 l4090 0 0 889 0 890 -238 3 -238 3 -29
28 c-16 15 -37 27 -45 27 -9 0 -31 11 -50 25 -19 14 -42 25 -51 25 -10 0 -21
5 -25 11 -3 6 -27 20 -53 31 -25 10 -62 29 -81 41 -19 12 -55 29 -80 38 -25 9
-91 35 -148 58 -57 23 -138 51 -180 62 -76 19 -248 58 -287 64 -11 1 -54 10
-95 19 -125 28 -282 58 -345 66 -73 9 -321 57 -332 63 -5 3 -64 15 -133 27
-69 12 -133 27 -143 32 -10 5 -57 16 -104 24 -48 9 -96 20 -107 26 -11 6 -34
13 -51 14 -38 4 -53 8 -87 22 -14 6 -55 16 -90 22 -34 7 -83 20 -108 30 -25
10 -63 21 -85 24 -21 3 -52 15 -67 26 -15 11 -36 20 -47 20 -11 0 -23 4 -26
10 -3 5 -28 12 -55 16 -29 4 -63 17 -82 31 l-33 25 85 -6 c94 -6 -234 38 -810
109 -206 25 -575 70 -820 100 -245 30 -870 107 -1390 170 -520 64 -1072 131
-1227 150 -314 39 -323 40 -323 24z m344 -1175 c13 -5 16 -24 16 -100 l0 -94
95 0 95 0 0 -105 0 -105 -95 0 -94 0 -3 -97 -3 -98 -102 -3 -103 -3 0 101 0
100 -100 0 -100 0 0 105 0 105 100 0 100 0 0 93 c0 52 3 97 7 100 8 9 166 9
187 1z m1935 -629 l73 -35 391 -1 c276 0 402 -4 427 -12 43 -15 82 -70 78
-112 -3 -26 -7 -30 -32 -30 -18 0 -32 7 -37 18 -5 9 -13 25 -18 35 -7 16 -41
17 -422 22 l-414 5 -62 33 c-58 30 -69 32 -161 32 -63 0 -102 -4 -110 -12 -9
-9 -12 -109 -12 -390 0 -363 1 -378 19 -388 13 -6 227 -10 624 -10 501 0 607
2 616 14 8 9 11 87 9 262 l-3 249 -605 3 c-555 2 -606 3 -617 19 -17 22 -16
28 3 47 14 14 83 16 615 16 658 0 642 1 674 -60 12 -24 15 -76 15 -291 l0
-261 -34 -34 -34 -34 -641 0 c-579 0 -644 2 -667 16 -53 35 -54 42 -54 456 0
366 1 384 20 416 30 48 69 61 185 62 95 0 105 -2 174 -35z m3646 -220 c-26
-21 -75 -34 -75 -20 0 20 39 45 70 45 l35 0 -30 -25z m-2270 -88 l0 -47 58 0
57 0 0 50 c0 47 2 50 25 50 l25 0 0 -125 0 -125 -25 0 c-23 0 -25 3 -25 50 l0
50 -57 0 -58 0 0 -47 c0 -45 -2 -48 -27 -51 l-28 -3 0 126 0 126 28 -3 c25 -3
27 -6 27 -51z m275 -72 l0 -125 -25 0 -25 0 0 125 0 125 25 0 25 0 0 -125z
m203 114 c17 -7 23 -17 20 -29 -4 -16 -13 -17 -64 -13 -55 5 -59 4 -59 -15 0
-16 12 -24 57 -39 72 -23 97 -57 73 -100 -21 -37 -78 -56 -132 -44 -49 11 -62
23 -54 49 6 19 9 19 46 5 47 -19 93 -11 88 15 -2 11 -24 24 -61 35 -64 21 -84
46 -73 91 12 47 100 72 159 45z m247 -14 c0 -22 -4 -25 -40 -25 l-40 0 0 -100
0 -100 -25 0 -25 0 0 100 0 100 -40 0 c-36 0 -40 3 -40 25 l0 25 105 0 105 0
0 -25z m211 2 c40 -27 59 -60 59 -105 0 -111 -146 -168 -225 -89 -43 43 -53
92 -29 142 34 73 127 98 195 52z m248 12 c32 -11 61 -52 61 -88 0 -11 -11 -32
-24 -48 l-25 -29 24 -30 c31 -38 31 -44 -2 -44 -21 0 -34 9 -52 35 -18 26 -31
35 -52 35 -26 0 -29 -3 -29 -35 0 -31 -3 -35 -25 -35 l-25 0 0 125 0 125 59 0
c32 0 72 -5 90 -11z m151 -114 l0 -125 -25 0 -25 0 0 125 0 125 25 0 25 0 0
-125z m236 5 c29 -63 53 -118 53 -122 1 -5 -12 -8 -28 -8 -22 0 -30 6 -35 25
-6 23 -11 25 -66 25 -55 0 -62 -2 -72 -25 -8 -18 -19 -25 -39 -25 l-28 0 35
78 c19 42 45 99 56 125 18 41 24 48 47 45 22 -3 32 -19 77 -118z m355 103 c33
-20 35 -26 15 -42 -11 -9 -20 -9 -35 -2 -59 32 -121 -2 -121 -67 0 -63 55 -96
112 -67 29 14 33 14 47 0 15 -15 14 -18 -8 -36 -35 -29 -105 -29 -153 -1 -31
18 -58 67 -58 107 0 93 118 157 201 108z m119 -83 l0 -99 63 -3 c54 -3 62 -5
62 -23 0 -18 -8 -20 -87 -23 l-88 -3 0 126 0 125 25 0 c25 0 25 0 25 -100z
m200 -25 l0 -125 -25 0 -25 0 0 125 0 125 25 0 25 0 0 -125z m162 49 l63 -77
3 77 c3 73 4 76 27 76 l25 0 0 -125 c0 -123 0 -125 -22 -125 -16 0 -40 22 -83
75 l-60 75 -3 -75 c-3 -72 -4 -75 -27 -75 l-25 0 0 125 c0 118 1 125 20 125
13 0 43 -28 82 -76z m228 -49 l0 -125 -25 0 -25 0 0 125 0 125 25 0 25 0 0
-125z m250 100 c19 -17 19 -20 5 -34 -12 -13 -19 -13 -35 -3 -48 30 -113 4
-125 -48 -14 -65 52 -115 114 -85 25 12 36 13 47 4 21 -17 17 -27 -18 -45 -41
-21 -95 -21 -136 0 -65 34 -83 129 -35 186 14 18 36 36 47 41 33 14 114 4 136
-16z m219 -79 c67 -143 68 -146 36 -146 -17 0 -29 8 -37 25 -10 23 -17 25 -70
25 -53 0 -59 -2 -68 -25 -7 -18 -17 -25 -35 -25 -14 0 -25 3 -25 8 0 4 23 60
52 125 45 101 55 117 75 117 21 0 31 -15 72 -104z m-4002 -11 c69 -21 81 -36
60 -80 -19 -39 -23 -41 -63 -20 -16 8 -50 15 -76 15 -39 0 -54 -6 -80 -29 -30
-27 -33 -34 -33 -91 0 -57 3 -64 33 -91 26 -23 41 -29 80 -29 26 0 60 7 76 15
39 20 40 20 62 -21 l19 -36 -23 -18 c-12 -10 -47 -24 -77 -31 -149 -33 -275
63 -275 211 0 160 135 253 297 205z m-629 -77 l3 -78 79 0 79 0 3 78 3 77 42
3 c55 4 54 5 51 -228 l-3 -185 -45 0 -45 0 -3 83 -3 82 -79 0 -80 0 0 -85 0
-85 -45 0 -45 0 0 203 c0 112 3 207 7 211 4 4 23 6 43 4 l35 -3 3 -77z m1066
66 c12 -32 6 -63 -15 -74 -12 -7 -54 -10 -100 -8 l-79 3 0 -32 0 -32 73 -3 72
-3 0 -40 0 -40 -72 -3 -73 -3 0 -39 0 -39 103 -3 102 -3 0 -40 0 -40 -150 0
-150 0 -3 195 c-1 107 0 200 2 207 4 10 41 13 145 13 117 0 140 -2 145 -16z
m2351 -249 c-16 -14 -41 -25 -54 -25 l-24 0 23 25 c15 16 34 25 54 25 l31 -1
-30 -24z m-1760 -60 c0 -17 -8 -21 -65 -25 -59 -5 -65 -7 -66 -27 -1 -21 4
-23 58 -23 55 0 58 -1 58 -25 0 -24 -3 -25 -59 -25 -56 0 -58 -1 -54 -25 5
-22 10 -24 67 -27 55 -3 61 -5 64 -25 3 -22 1 -23 -92 -23 l-96 0 0 125 0 126
93 -3 c84 -3 92 -5 92 -23z m165 -75 l0 -99 63 -3 c56 -3 62 -5 65 -25 3 -22
1 -23 -87 -23 l-91 0 0 125 0 125 25 0 c25 0 25 0 25 -100z m410 75 c0 -24 -2
-25 -65 -25 -63 0 -65 -1 -65 -25 0 -24 3 -25 55 -25 52 0 55 -1 55 -25 0 -24
-3 -25 -55 -25 -53 0 -55 -1 -55 -27 l0 -28 65 3 c64 4 65 3 65 -22 l0 -26
-95 0 -95 0 0 118 c0 65 3 122 7 125 3 4 46 7 95 7 87 0 88 0 88 -25z m299 4
c31 -19 33 -22 18 -36 -13 -14 -21 -14 -42 -5 -40 19 -74 14 -100 -13 -64 -63
7 -160 88 -120 27 14 32 14 49 -2 18 -16 17 -17 -9 -35 -18 -12 -47 -18 -81
-18 -48 0 -58 4 -88 34 -32 32 -40 57 -34 111 9 87 119 133 199 84z m311 -4
c0 -22 -4 -25 -40 -25 l-40 0 0 -100 0 -100 -25 0 -25 0 0 100 0 100 -40 0
c-36 0 -40 3 -40 25 l0 25 105 0 105 0 0 -25z m274 -4 c32 -30 35 -87 7 -123
-20 -25 -20 -25 5 -61 l25 -37 -31 0 c-23 0 -35 8 -52 35 -17 26 -30 35 -50
35 -25 0 -28 -3 -28 -35 0 -32 -2 -35 -30 -35 l-30 0 0 118 c0 65 3 122 8 126
4 4 39 6 79 4 59 -3 76 -8 97 -27z m353 -15 c28 -30 33 -43 33 -84 0 -54 -17
-85 -60 -107 -37 -19 -103 -19 -140 0 -63 33 -80 129 -33 185 35 42 58 51 117
46 42 -3 55 -9 83 -40z m248 -32 l60 -76 3 76 c3 73 4 76 27 76 l25 0 0 -125
c0 -123 0 -125 -22 -125 -16 1 -38 20 -73 66 -71 92 -70 92 -70 11 0 -71 0
-72 -27 -75 l-28 -3 0 125 c0 124 0 126 23 126 15 -1 40 -23 82 -76z m295 -49
l0 -125 -25 0 -25 0 0 125 0 125 25 0 25 0 0 -125z m311 108 c33 -20 35 -26
15 -42 -11 -9 -20 -9 -35 -2 -59 32 -121 -2 -121 -67 0 -63 55 -96 112 -67 29
14 33 14 47 0 15 -15 14 -18 -8 -36 -30 -25 -111 -26 -152 -2 -32 19 -59 68
-59 108 0 93 118 157 201 108z m307 -100 c29 -65 52 -121 52 -125 0 -5 -11 -8
-25 -8 -18 0 -28 7 -35 25 -9 23 -15 25 -68 25 -53 0 -60 -2 -70 -25 -8 -17
-20 -25 -37 -25 -14 0 -25 2 -25 5 0 6 77 180 95 216 10 19 23 29 38 29 20 0
31 -17 75 -117z"/>
<path d="M15682 1107 c-47 -50 -15 -131 52 -131 50 0 80 31 79 81 -2 68 -84
100 -131 50z"/>
<path d="M15960 1085 c0 -41 2 -45 24 -45 45 0 76 18 76 43 0 33 -18 47 -62
47 l-38 0 0 -45z"/>
<path d="M16347 1070 l-15 -40 34 0 c19 0 34 2 34 4 0 7 -30 76 -34 76 -1 0
-10 -18 -19 -40z"/>
<path d="M17888 1070 l-17 -40 35 0 c19 0 34 2 34 5 0 8 -29 75 -32 75 -2 0
-11 -18 -20 -40z"/>
<path d="M16340 674 l0 -47 42 7 c44 7 58 19 58 48 0 22 -30 38 -69 38 -30 0
-31 -1 -31 -46z"/>
<path d="M16665 695 c-27 -26 -31 -51 -14 -89 22 -48 101 -53 135 -8 36 46 -5
122 -66 122 -19 0 -40 -9 -55 -25z"/>
<path d="M17885 666 c-9 -21 -14 -40 -12 -43 3 -2 18 -3 34 -1 l30 3 -18 40
-18 40 -16 -39z"/>
<path d="M4150 3230 c0 -6 -12 -28 -26 -50 -24 -36 -25 -43 -14 -70 10 -24 10
-40 1 -70 -13 -43 -39 -57 -89 -47 -15 3 -52 -2 -81 -12 l-53 -17 35 -11 c22
-7 66 -8 122 -2 48 4 94 5 102 2 21 -8 64 36 54 55 -10 18 21 52 48 52 26 0
37 -36 17 -56 -32 -31 -7 -47 34 -21 15 8 23 9 28 1 10 -15 53 -37 59 -30 4 3
-20 34 -53 68 -33 35 -84 98 -114 140 -52 74 -70 91 -70 68z"/>
<path d="M430 3185 c0 -8 2 -15 4 -15 2 0 6 7 10 15 3 8 1 15 -4 15 -6 0 -10
-7 -10 -15z"/>
<path d="M11116 3181 c-4 -7 -5 -15 -2 -18 9 -9 19 4 14 18 -4 11 -6 11 -12 0z"/>
<path d="M395 3150 c3 -5 8 -10 11 -10 2 0 4 5 4 10 0 6 -5 10 -11 10 -5 0 -7
-4 -4 -10z"/>
<path d="M631 3142 c-1 -7 -7 -20 -13 -28 -7 -8 -18 -20 -23 -27 -36 -43 -115
-156 -115 -165 0 -5 -7 -12 -15 -16 -15 -5 -21 -26 -7 -26 4 0 34 38 66 85 33
47 64 85 68 85 4 0 8 5 8 11 0 6 9 24 21 40 11 16 18 35 16 42 -4 9 -6 9 -6
-1z"/>
<path d="M11085 3140 c-3 -5 -1 -10 4 -10 6 0 11 5 11 10 0 6 -2 10 -4 10 -3
0 -8 -4 -11 -10z"/>
<path d="M5031 3102 c-6 -12 -11 -29 -11 -39 0 -11 -4 -23 -9 -28 -6 -6 -13
-41 -17 -80 -4 -38 -10 -77 -14 -85 -5 -8 0 -37 12 -67 10 -29 18 -68 16 -87
l-3 -34 -37 15 c-24 10 -38 22 -38 33 0 20 -54 33 -101 23 -54 -10 -29 -37 46
-48 73 -10 128 -34 115 -50 -8 -9 -4 -14 17 -18 16 -3 31 -2 35 2 8 7 -3 100
-20 177 -9 43 -1 167 17 248 12 54 9 69 -8 38z"/>
<path d="M11060 3110 c0 -5 5 -10 10 -10 6 0 10 5 10 10 0 6 -4 10 -10 10 -5
0 -10 -4 -10 -10z"/>
<path d="M340 3091 c0 -12 5 -21 10 -21 6 0 10 6 10 14 0 8 -4 18 -10 21 -5 3
-10 -3 -10 -14z"/>
<path d="M435 3089 c-10 -15 3 -25 16 -12 7 7 7 13 1 17 -6 3 -14 1 -17 -5z"/>
<path d="M250 3075 c0 -16 27 -32 37 -21 7 7 -16 36 -28 36 -5 0 -9 -7 -9 -15z"/>
<path d="M11040 3074 c0 -8 5 -12 10 -9 6 4 8 11 5 16 -9 14 -15 11 -15 -7z"/>
<path d="M11010 3039 c0 -5 5 -7 10 -4 6 3 10 8 10 11 0 2 -4 4 -10 4 -5 0
-10 -5 -10 -11z"/>
<path d="M241 3004 c0 -11 3 -14 6 -6 3 7 2 16 -1 19 -3 4 -6 -2 -5 -13z"/>
<path d="M10990 3009 c0 -5 5 -7 10 -4 6 3 10 8 10 11 0 2 -4 4 -10 4 -5 0
-10 -5 -10 -11z"/>
<path d="M280 2992 c0 -7 -7 -12 -15 -12 -8 0 -15 -4 -15 -10 0 -5 -16 -33
-36 -60 -20 -28 -34 -53 -31 -56 3 -3 19 14 36 38 33 46 38 53 60 81 8 10 11
20 7 24 -3 3 -6 1 -6 -5z"/>
<path d="M338 2968 c-57 -77 -68 -108 -28 -75 15 12 70 92 70 102 0 15 -20 1
-42 -27z"/>
<path d="M10960 2970 c0 -5 5 -10 10 -10 6 0 10 5 10 10 0 6 -4 10 -10 10 -5
0 -10 -4 -10 -10z"/>
<path d="M10935 2941 c-3 -5 -1 -12 5 -16 5 -3 10 1 10 9 0 18 -6 21 -15 7z"/>
<path d="M10916 2901 c-4 -7 -5 -15 -2 -18 9 -9 19 4 14 18 -4 11 -6 11 -12 0z"/>
<path d="M265 2860 c-3 -5 -1 -10 4 -10 6 0 11 5 11 10 0 6 -2 10 -4 10 -3 0
-8 -4 -11 -10z"/>
<path d="M420 2857 c-8 -7 -22 -25 -30 -41 -8 -17 -25 -41 -37 -54 -13 -14
-23 -29 -23 -33 0 -4 -16 -25 -35 -46 -19 -21 -38 -46 -41 -55 -3 -10 -10 -18
-15 -18 -5 0 -9 -5 -9 -10 0 -6 -11 -23 -25 -38 -14 -15 -25 -30 -25 -35 0 -4
-11 -20 -25 -35 -25 -27 -31 -42 -17 -42 4 0 27 29 51 65 24 36 48 65 53 65 4
0 8 5 8 11 0 6 7 17 15 26 13 12 83 107 174 234 15 21 4 25 -19 6z"/>
<path d="M10885 2861 c-6 -11 9 -23 19 -14 9 9 7 23 -3 23 -6 0 -12 -4 -16 -9z"/>
<path d="M4639 2826 c16 -19 55 -22 49 -3 -3 6 -17 14 -33 15 -25 3 -27 2 -16
-12z"/>
<path d="M10860 2810 c0 -11 -4 -20 -10 -20 -5 0 -10 -8 -10 -17 0 -15 4 -13
20 7 21 27 26 50 10 50 -5 0 -10 -9 -10 -20z"/>
<path d="M195 2778 c-17 -19 -34 -41 -40 -50 -5 -8 -18 -27 -29 -42 -10 -15
-16 -29 -13 -32 11 -11 46 21 63 58 9 20 25 46 36 58 11 11 18 25 16 31 -2 6
-17 -5 -33 -23z"/>
<path d="M4740 2765 c0 -8 9 -15 20 -15 11 0 20 2 20 5 0 2 -9 9 -20 15 -16 9
-20 8 -20 -5z"/>
<path d="M66 2720 c-9 -17 -13 -30 -8 -30 10 0 37 48 31 55 -3 2 -13 -9 -23
-25z"/>
<path d="M10815 2737 c-4 -10 -5 -21 -1 -24 10 -10 18 4 13 24 -4 17 -4 17
-12 0z"/>
<path d="M10783 2685 c-3 -9 -3 -18 0 -21 9 -9 27 6 27 22 0 19 -19 18 -27 -1z"/>
<path d="M15898 2673 c6 -2 18 -2 25 0 6 3 1 5 -13 5 -14 0 -19 -2 -12 -5z"/>
<path d="M15988 2663 c7 -3 16 -2 19 1 4 3 -2 6 -13 5 -11 0 -14 -3 -6 -6z"/>
<path d="M16078 2653 c7 -3 16 -2 19 1 4 3 -2 6 -13 5 -11 0 -14 -3 -6 -6z"/>
<path d="M5 2640 c4 -6 11 -8 16 -5 14 9 11 15 -7 15 -8 0 -12 -5 -9 -10z"/>
<path d="M10760 2630 c0 -11 -4 -20 -9 -20 -15 0 -24 -41 -12 -53 8 -8 13 -2
17 21 4 18 10 32 15 32 5 0 9 9 9 20 0 11 -4 20 -10 20 -5 0 -10 -9 -10 -20z"/>
<path d="M127 2603 c-4 -3 -7 -13 -7 -22 1 -13 3 -13 11 2 11 19 8 33 -4 20z"/>
<path d="M4912 2603 c-17 -7 -48 -67 -31 -61 15 5 55 56 48 61 -2 3 -10 2 -17
0z"/>
<path d="M32 2570 c-32 -43 -27 -49 8 -10 32 36 34 40 22 40 -5 0 -18 -13 -30
-30z"/>
<path d="M10718 2544 c-5 -4 -8 -16 -8 -26 0 -10 -7 -30 -16 -44 -17 -25 -14
-41 5 -29 6 3 11 14 11 24 0 9 5 22 11 28 6 6 9 21 7 33 -1 12 -6 18 -10 14z"/>
<path d="M80 2398 c-16 -24 -33 -47 -38 -53 -44 -55 -58 -97 -17 -53 14 15 25
30 25 35 0 4 11 18 24 32 35 39 60 81 47 81 -6 0 -24 -19 -41 -42z"/>
<path d="M4827 2433 c-12 -11 -8 -23 8 -23 8 0 15 7 15 15 0 16 -12 20 -23 8z"/>
<path d="M5066 2432 c-3 -5 -31 -14 -63 -21 -55 -11 -137 -41 -230 -82 -70
-31 -95 -20 -55 25 13 15 17 30 12 51 -5 28 -7 29 -16 10 -6 -11 -17 -56 -23
-100 -7 -44 -32 -179 -56 -300 -72 -371 -76 -394 -70 -443 11 -85 12 -196 4
-282 -5 -47 -13 -218 -19 -380 -6 -162 -15 -369 -20 -460 -5 -91 -12 -229 -16
-307 l-7 -143 665 0 665 0 11 42 c35 134 76 356 92 493 4 39 16 122 25 185 51
344 71 804 51 1192 l-8 156 -257 4 c-141 2 -269 0 -286 -5 -16 -4 -66 -12
-110 -17 -44 -5 -94 -12 -111 -15 -31 -7 -32 -5 -68 64 -28 56 -36 83 -36 125
0 30 -4 57 -9 60 -5 4 -12 25 -16 49 -13 85 -33 125 -49 99z"/>
<path d="M10660 2400 c0 -16 5 -30 10 -30 6 0 10 14 10 30 0 17 -4 30 -10 30
-5 0 -10 -13 -10 -30z"/>
<path d="M10691 2334 c0 -11 3 -14 6 -6 3 7 2 16 -1 19 -3 4 -6 -2 -5 -13z"/>
<path d="M1225 2259 c-4 -6 -5 -12 -2 -15 2 -3 7 2 10 11 7 17 1 20 -8 4z"/>
<path d="M1167 2164 c-10 -14 -17 -30 -14 -37 2 -7 12 3 21 21 21 41 18 49 -7
16z"/>
<path d="M10737 2121 c-4 -20 -15 -32 -39 -40 -71 -27 -78 -31 -78 -46 0 -25
35 -17 84 20 36 29 46 42 46 65 0 38 -6 38 -13 1z"/>
<path d="M1043 2085 c-12 -22 -31 -48 -43 -58 -26 -22 -20 -33 8 -18 31 16 64
68 60 94 -3 19 -6 17 -25 -18z"/>
<path d="M1002 1953 c-70 -33 -229 -45 -251 -19 -18 21 -86 23 -77 1 4 -11 -2
-15 -21 -15 -22 0 -24 2 -12 16 13 16 8 16 -56 8 -76 -10 -435 -9 -527 1 -46
5 -58 3 -58 -8 0 -17 74 -24 350 -33 107 -3 221 -9 253 -13 91 -12 346 -5 392
11 24 7 44 22 50 36 5 12 13 22 17 22 5 0 8 5 8 10 0 14 -7 12 -68 -17z m-277
-23 c3 -5 -1 -10 -10 -10 -9 0 -13 5 -10 10 3 6 8 10 10 10 2 0 7 -4 10 -10z
m-122 -7 c-7 -2 -19 -2 -25 0 -7 3 -2 5 12 5 14 0 19 -2 13 -5z"/>
<path d="M9990 1919 c0 -5 5 -7 10 -4 6 3 10 8 10 11 0 2 -4 4 -10 4 -5 0 -10
-5 -10 -11z"/>
<path d="M10070 1920 c0 -5 5 -10 10 -10 6 0 10 5 10 10 0 6 -4 10 -10 10 -5
0 -10 -4 -10 -10z"/>
<path d="M10000 1869 c0 -5 5 -7 10 -4 6 3 10 8 10 11 0 2 -4 4 -10 4 -5 0
-10 -5 -10 -11z"/>
<path d="M10080 1869 c0 -5 5 -7 10 -4 6 3 10 8 10 11 0 2 -4 4 -10 4 -5 0
-10 -5 -10 -11z"/>
<path d="M10176 1833 c-6 -14 -5 -15 5 -6 7 7 10 15 7 18 -3 3 -9 -2 -12 -12z"/>
<path d="M10090 1820 c0 -5 5 -10 10 -10 6 0 10 5 10 10 0 6 -4 10 -10 10 -5
0 -10 -4 -10 -10z"/>
<path d="M10125 1801 c-6 -11 9 -23 19 -14 9 9 7 23 -3 23 -6 0 -12 -4 -16 -9z"/>
<path d="M10048 1793 c7 -3 16 -2 19 1 4 3 -2 6 -13 5 -11 0 -14 -3 -6 -6z"/>
<path d="M10090 1770 c0 -5 4 -10 9 -10 6 0 13 5 16 10 3 6 -1 10 -9 10 -9 0
-16 -4 -16 -10z"/>
<path d="M10151 1760 c-18 -15 -19 -20 -7 -20 9 0 16 5 16 10 0 6 7 10 15 10
8 0 15 5 15 10 0 15 -12 12 -39 -10z"/>
<path d="M10625 1750 c-3 -5 -1 -10 4 -10 6 0 11 5 11 10 0 6 -2 10 -4 10 -3
0 -8 -4 -11 -10z"/>
<path d="M9958 1743 c7 -3 16 -2 19 1 4 3 -2 6 -13 5 -11 0 -14 -3 -6 -6z"/>
<path d="M10058 1743 c7 -3 16 -2 19 1 4 3 -2 6 -13 5 -11 0 -14 -3 -6 -6z"/>
<path d="M10010 1719 c0 -5 5 -7 10 -4 6 3 10 8 10 11 0 2 -4 4 -10 4 -5 0
-10 -5 -10 -11z"/>
<path d="M10100 1720 c0 -5 5 -10 10 -10 6 0 10 5 10 10 0 6 -4 10 -10 10 -5
0 -10 -4 -10 -10z"/>
<path d="M10156 1709 c-12 -11 -15 -19 -7 -19 13 0 41 24 41 34 0 11 -15 5
-34 -15z"/>
<path d="M10110 1670 c0 -5 4 -10 9 -10 6 0 13 5 16 10 3 6 -1 10 -9 10 -9 0
-16 -4 -16 -10z"/>
<path d="M10065 1650 c-3 -5 1 -10 9 -10 9 0 16 5 16 10 0 6 -4 10 -9 10 -6 0
-13 -4 -16 -10z"/>
<path d="M10630 1560 c0 -5 16 -16 35 -25 19 -9 39 -23 46 -31 6 -8 16 -14 21
-14 12 0 -33 50 -45 50 -5 0 -15 7 -23 15 -17 17 -34 20 -34 5z"/>
<path d="M9333 1513 c9 -2 23 -2 30 0 6 3 -1 5 -18 5 -16 0 -22 -2 -12 -5z"/>
<path d="M4517 1406 c-3 -7 -8 -35 -12 -62 -6 -46 -5 -48 9 -30 9 11 16 39 16
63 0 44 -4 53 -13 29z"/>
<path d="M8388 1393 c12 -2 32 -2 45 0 12 2 2 4 -23 4 -25 0 -35 -2 -22 -4z"/>
<path d="M8225 1370 c-24 -6 -17 -8 33 -9 40 -1 61 3 57 9 -7 11 -46 11 -90 0z"/>
<path d="M8050 1340 c-8 -5 -40 -10 -70 -10 -30 0 -62 -5 -70 -10 -11 -7 5
-10 52 -10 37 0 70 5 73 10 3 6 25 10 48 10 23 0 49 5 57 10 11 7 3 10 -30 10
-25 0 -52 -5 -60 -10z"/>
<path d="M7775 1295 c-27 -8 -63 -14 -80 -15 -16 0 -37 -5 -45 -10 -11 -7 0
-10 37 -10 28 0 55 5 58 10 3 6 30 10 60 10 57 0 85 7 85 21 0 13 -57 10 -115
-6z"/>
<path d="M4486 1245 c-4 -27 -19 -105 -32 -172 -25 -126 -31 -198 -14 -158 5
11 9 37 9 57 1 20 5 48 10 62 6 13 13 49 16 78 3 29 10 65 16 79 6 15 9 44 7
65 l-4 39 -8 -50z"/>
<path d="M9811 1264 c-20 -23 -9 -25 18 -3 13 11 17 19 10 19 -8 -1 -20 -8
-28 -16z"/>
<path d="M7565 1255 c-5 -1 -30 -9 -55 -16 -106 -32 -90 -107 40 -178 63 -35
157 -81 215 -106 22 -9 49 -20 60 -25 11 -5 47 -17 80 -27 53 -16 96 -18 360
-16 165 2 388 7 495 12 l195 8 110 -53 c102 -49 147 -83 212 -156 41 -46 83
-208 68 -265 -9 -38 -21 -15 -30 62 -4 33 -15 80 -26 104 -10 24 -19 52 -19
62 0 31 -16 22 -34 -20 -19 -41 -19 -40 31 -199 25 -80 18 -89 -103 -150 -62
-31 -84 -60 -84 -108 0 -14 -11 -36 -25 -50 -26 -26 -40 -26 -233 -5 -67 8
-88 -1 -167 -68 -17 -14 -42 -34 -55 -43 -24 -16 6 -17 553 -17 322 -1 576 3
573 8 -3 4 -10 48 -16 97 -6 49 -15 120 -19 158 -10 77 -6 103 13 83 7 -6 17
-48 24 -92 6 -44 13 -89 16 -100 2 -11 7 -47 11 -80 8 -71 10 -75 40 -75 22 0
23 3 21 68 -1 37 -6 75 -10 85 -5 10 -6 31 -2 48 4 21 1 31 -9 35 -18 7 -20
45 -3 62 9 9 7 16 -6 31 -11 13 -15 27 -11 40 5 15 2 21 -10 21 -13 0 -14 4
-4 21 6 12 8 34 5 50 -3 15 -1 31 4 34 9 6 10 45 0 45 -7 0 -6 128 2 135 3 4
4 27 2 52 -3 32 0 51 11 63 8 9 19 38 24 64 5 27 16 55 25 65 16 15 18 15 27
-2 10 -16 11 -16 28 4 15 19 31 23 104 27 l86 4 118 -122 c65 -67 119 -128
121 -134 1 -7 -16 -32 -39 -56 -23 -25 -59 -69 -81 -97 -22 -29 -44 -53 -48
-53 -4 0 -25 21 -45 46 -37 45 -173 167 -207 185 -17 9 -17 -1 -13 -158 5
-159 11 -234 35 -448 5 -50 10 -96 10 -102 0 -10 63 -13 280 -13 217 0 280 3
280 13 0 24 -110 198 -180 286 -33 41 -60 81 -60 89 0 12 74 109 100 132 3 3
19 22 34 43 16 20 34 37 41 37 7 0 40 -25 74 -55 64 -57 105 -75 124 -56 6 6
19 11 28 11 10 0 21 5 24 11 4 6 -4 9 -22 7 -23 -3 -28 1 -31 22 -2 23 -53
238 -88 377 -9 34 -13 67 -9 72 11 19 -20 22 -76 7 -99 -25 -322 -52 -327 -38
-8 24 -1 27 80 37 63 8 83 14 83 25 0 8 -10 16 -22 18 -13 2 -23 7 -23 12 0 5
-19 8 -42 6 -25 -2 -46 1 -50 7 -8 14 -755 17 -953 5 -124 -8 -139 -8 -177 -7
-33 2 -189 -10 -296 -21 -52 -6 -97 -8 -101 -6 -3 3 -38 -2 -76 -10 -39 -9
-85 -13 -103 -10 -18 3 -44 1 -57 -4 -20 -8 -236 -32 -270 -31 -127 5 -211 14
-245 26 -23 8 -53 15 -66 15 -12 0 -26 5 -29 10 -8 14 -72 40 -97 40 -10 0
-16 -4 -13 -10 3 -5 -1 -10 -10 -10 -11 0 -15 5 -11 15 3 9 0 15 -9 15 -8 0
-15 5 -15 10 0 6 -16 10 -35 10 -19 0 -35 5 -35 10 0 6 -6 10 -13 10 -16 0
-67 51 -67 67 0 18 43 40 95 47 56 7 86 26 40 25 -17 0 -34 -2 -40 -4z m150
-225 c3 -5 -1 -10 -9 -10 -9 0 -16 5 -16 10 0 6 4 10 9 10 6 0 13 -4 16 -10z
m89 -36 c6 -15 4 -15 -11 -3 -10 7 -20 15 -22 16 -2 2 3 3 11 3 9 0 19 -7 22
-16z m2081 -44 c3 -5 1 -10 -4 -10 -6 0 -11 5 -11 10 0 6 2 10 4 10 3 0 8 -4
11 -10z m-1715 -10 c0 -5 -8 -10 -17 -10 -15 0 -16 2 -3 10 19 12 20 12 20 0z
m125 0 c15 -6 8 -9 -28 -9 -30 -1 -46 3 -42 9 7 12 42 12 70 0z m254 -6 c2 -2
-47 -3 -110 -3 -75 1 -102 4 -79 9 33 7 180 2 189 -6z m506 -5 c10 -15 -2 -24
-17 -11 -7 5 -24 12 -38 15 -19 3 -16 5 12 6 20 0 40 -4 43 -10z m620 -289 c3
-11 3 -29 0 -40 -4 -12 -2 -26 3 -33 6 -8 6 -21 -1 -37 l-10 -25 -7 25 c-11
36 -12 130 -1 130 5 0 13 -9 16 -20z m23 -222 c-4 -61 -14 -62 -22 0 -4 26
-10 56 -13 67 -6 20 -5 20 16 1 17 -16 21 -29 19 -68z"/>
<path d="M9970 1200 c0 -5 5 -10 10 -10 6 0 10 5 10 10 0 6 -4 10 -10 10 -5 0
-10 -4 -10 -10z"/>
<path d="M10763 1135 c0 -22 2 -30 4 -17 2 12 2 30 0 40 -3 9 -5 -1 -4 -23z"/>
<path d="M10695 1100 c-3 -5 -1 -10 4 -10 6 0 11 5 11 10 0 6 -2 10 -4 10 -3
0 -8 -4 -11 -10z"/>
<path d="M10717 1004 c-26 -31 -27 -34 -9 -34 22 0 59 48 45 60 -4 4 -21 -8
-36 -26z"/>
<path d="M10660 915 c0 -19 5 -35 10 -35 6 0 10 16 10 35 0 19 -4 35 -10 35
-5 0 -10 -16 -10 -35z"/>
<path d="M10687 853 c-10 -16 2 -83 14 -83 5 0 9 -18 9 -39 0 -22 5 -43 10
-46 13 -8 13 39 1 79 -6 17 -14 47 -18 66 -6 22 -12 30 -16 23z"/>
<path d="M4408 821 c-11 -49 -10 -67 3 -54 6 6 9 28 7 49 l-3 39 -7 -34z"/>
<path d="M4386 686 c-4 -21 -5 -40 -2 -43 7 -8 18 42 14 64 -3 11 -7 3 -12
-21z"/>
<path d="M10737 663 c-4 -3 -4 -30 -1 -59 6 -50 5 -54 -16 -62 -15 -6 -19 -11
-12 -16 6 -4 20 -2 31 3 17 9 18 19 14 73 -6 69 -7 71 -16 61z"/>
<path d="M4361 534 c0 -11 3 -14 6 -6 3 7 2 16 -1 19 -3 4 -6 -2 -5 -13z"/>
</g>
</svg>
